G04 #@! TF.GenerationSoftware,KiCad,Pcbnew,(5.1.6-0-10_14)*
G04 #@! TF.CreationDate,2020-05-23T22:31:31+08:00*
G04 #@! TF.ProjectId,HHKB Lite 2,48484b42-204c-4697-9465-20322e6b6963,2020.06*
G04 #@! TF.SameCoordinates,Original*
G04 #@! TF.FileFunction,Legend,Top*
G04 #@! TF.FilePolarity,Positive*
%FSLAX46Y46*%
G04 Gerber Fmt 4.6, Leading zero omitted, Abs format (unit mm)*
G04 Created by KiCad (PCBNEW (5.1.6-0-10_14)) date 2020-05-23 22:31:31*
%MOMM*%
%LPD*%
G01*
G04 APERTURE LIST*
%ADD10C,0.150000*%
%ADD11C,0.120000*%
G04 APERTURE END LIST*
D10*
X148789619Y-49364380D02*
X149361047Y-49364380D01*
X149075333Y-50364380D02*
X149075333Y-49364380D01*
X150075333Y-50316761D02*
X149980095Y-50364380D01*
X149789619Y-50364380D01*
X149694380Y-50316761D01*
X149646761Y-50221523D01*
X149646761Y-49840571D01*
X149694380Y-49745333D01*
X149789619Y-49697714D01*
X149980095Y-49697714D01*
X150075333Y-49745333D01*
X150122952Y-49840571D01*
X150122952Y-49935809D01*
X149646761Y-50031047D01*
X150932476Y-50316761D02*
X150837238Y-50364380D01*
X150646761Y-50364380D01*
X150551523Y-50316761D01*
X150503904Y-50221523D01*
X150503904Y-49840571D01*
X150551523Y-49745333D01*
X150646761Y-49697714D01*
X150837238Y-49697714D01*
X150932476Y-49745333D01*
X150980095Y-49840571D01*
X150980095Y-49935809D01*
X150503904Y-50031047D01*
X151408666Y-49697714D02*
X151408666Y-50364380D01*
X151408666Y-49792952D02*
X151456285Y-49745333D01*
X151551523Y-49697714D01*
X151694380Y-49697714D01*
X151789619Y-49745333D01*
X151837238Y-49840571D01*
X151837238Y-50364380D01*
X152265809Y-50316761D02*
X152361047Y-50364380D01*
X152551523Y-50364380D01*
X152646761Y-50316761D01*
X152694380Y-50221523D01*
X152694380Y-50173904D01*
X152646761Y-50078666D01*
X152551523Y-50031047D01*
X152408666Y-50031047D01*
X152313428Y-49983428D01*
X152265809Y-49888190D01*
X152265809Y-49840571D01*
X152313428Y-49745333D01*
X152408666Y-49697714D01*
X152551523Y-49697714D01*
X152646761Y-49745333D01*
X153027714Y-49697714D02*
X153265809Y-50364380D01*
X153503904Y-49697714D02*
X153265809Y-50364380D01*
X153170571Y-50602476D01*
X153122952Y-50650095D01*
X153027714Y-50697714D01*
X155075333Y-49697714D02*
X155075333Y-50507238D01*
X155027714Y-50602476D01*
X154980095Y-50650095D01*
X154884857Y-50697714D01*
X154742000Y-50697714D01*
X154646761Y-50650095D01*
X155075333Y-50316761D02*
X154980095Y-50364380D01*
X154789619Y-50364380D01*
X154694380Y-50316761D01*
X154646761Y-50269142D01*
X154599142Y-50173904D01*
X154599142Y-49888190D01*
X154646761Y-49792952D01*
X154694380Y-49745333D01*
X154789619Y-49697714D01*
X154980095Y-49697714D01*
X155075333Y-49745333D01*
X155694380Y-50364380D02*
X155599142Y-50316761D01*
X155551523Y-50269142D01*
X155503904Y-50173904D01*
X155503904Y-49888190D01*
X155551523Y-49792952D01*
X155599142Y-49745333D01*
X155694380Y-49697714D01*
X155837238Y-49697714D01*
X155932476Y-49745333D01*
X155980095Y-49792952D01*
X156027714Y-49888190D01*
X156027714Y-50173904D01*
X155980095Y-50269142D01*
X155932476Y-50316761D01*
X155837238Y-50364380D01*
X155694380Y-50364380D01*
X156837238Y-50316761D02*
X156742000Y-50364380D01*
X156551523Y-50364380D01*
X156456285Y-50316761D01*
X156408666Y-50221523D01*
X156408666Y-49840571D01*
X156456285Y-49745333D01*
X156551523Y-49697714D01*
X156742000Y-49697714D01*
X156837238Y-49745333D01*
X156884857Y-49840571D01*
X156884857Y-49935809D01*
X156408666Y-50031047D01*
X157265809Y-50316761D02*
X157361047Y-50364380D01*
X157551523Y-50364380D01*
X157646761Y-50316761D01*
X157694380Y-50221523D01*
X157694380Y-50173904D01*
X157646761Y-50078666D01*
X157551523Y-50031047D01*
X157408666Y-50031047D01*
X157313428Y-49983428D01*
X157265809Y-49888190D01*
X157265809Y-49840571D01*
X157313428Y-49745333D01*
X157408666Y-49697714D01*
X157551523Y-49697714D01*
X157646761Y-49745333D01*
X159027714Y-50364380D02*
X158932476Y-50316761D01*
X158884857Y-50269142D01*
X158837238Y-50173904D01*
X158837238Y-49888190D01*
X158884857Y-49792952D01*
X158932476Y-49745333D01*
X159027714Y-49697714D01*
X159170571Y-49697714D01*
X159265809Y-49745333D01*
X159313428Y-49792952D01*
X159361047Y-49888190D01*
X159361047Y-50173904D01*
X159313428Y-50269142D01*
X159265809Y-50316761D01*
X159170571Y-50364380D01*
X159027714Y-50364380D01*
X159789619Y-49697714D02*
X159789619Y-50364380D01*
X159789619Y-49792952D02*
X159837238Y-49745333D01*
X159932476Y-49697714D01*
X160075333Y-49697714D01*
X160170571Y-49745333D01*
X160218190Y-49840571D01*
X160218190Y-50364380D01*
X161313428Y-49697714D02*
X161694380Y-49697714D01*
X161456285Y-49364380D02*
X161456285Y-50221523D01*
X161503904Y-50316761D01*
X161599142Y-50364380D01*
X161694380Y-50364380D01*
X162027714Y-50364380D02*
X162027714Y-49364380D01*
X162456285Y-50364380D02*
X162456285Y-49840571D01*
X162408666Y-49745333D01*
X162313428Y-49697714D01*
X162170571Y-49697714D01*
X162075333Y-49745333D01*
X162027714Y-49792952D01*
X162932476Y-50364380D02*
X162932476Y-49697714D01*
X162932476Y-49364380D02*
X162884857Y-49412000D01*
X162932476Y-49459619D01*
X162980095Y-49412000D01*
X162932476Y-49364380D01*
X162932476Y-49459619D01*
X163361047Y-50316761D02*
X163456285Y-50364380D01*
X163646761Y-50364380D01*
X163742000Y-50316761D01*
X163789619Y-50221523D01*
X163789619Y-50173904D01*
X163742000Y-50078666D01*
X163646761Y-50031047D01*
X163503904Y-50031047D01*
X163408666Y-49983428D01*
X163361047Y-49888190D01*
X163361047Y-49840571D01*
X163408666Y-49745333D01*
X163503904Y-49697714D01*
X163646761Y-49697714D01*
X163742000Y-49745333D01*
X164932476Y-50316761D02*
X165027714Y-50364380D01*
X165218190Y-50364380D01*
X165313428Y-50316761D01*
X165361047Y-50221523D01*
X165361047Y-50173904D01*
X165313428Y-50078666D01*
X165218190Y-50031047D01*
X165075333Y-50031047D01*
X164980095Y-49983428D01*
X164932476Y-49888190D01*
X164932476Y-49840571D01*
X164980095Y-49745333D01*
X165075333Y-49697714D01*
X165218190Y-49697714D01*
X165313428Y-49745333D01*
X165789619Y-50364380D02*
X165789619Y-49697714D01*
X165789619Y-49364380D02*
X165742000Y-49412000D01*
X165789619Y-49459619D01*
X165837238Y-49412000D01*
X165789619Y-49364380D01*
X165789619Y-49459619D01*
X166694380Y-50364380D02*
X166694380Y-49364380D01*
X166694380Y-50316761D02*
X166599142Y-50364380D01*
X166408666Y-50364380D01*
X166313428Y-50316761D01*
X166265809Y-50269142D01*
X166218190Y-50173904D01*
X166218190Y-49888190D01*
X166265809Y-49792952D01*
X166313428Y-49745333D01*
X166408666Y-49697714D01*
X166599142Y-49697714D01*
X166694380Y-49745333D01*
X167551523Y-50316761D02*
X167456285Y-50364380D01*
X167265809Y-50364380D01*
X167170571Y-50316761D01*
X167122952Y-50221523D01*
X167122952Y-49840571D01*
X167170571Y-49745333D01*
X167265809Y-49697714D01*
X167456285Y-49697714D01*
X167551523Y-49745333D01*
X167599142Y-49840571D01*
X167599142Y-49935809D01*
X167122952Y-50031047D01*
X146765809Y-51014380D02*
X146765809Y-51823904D01*
X146813428Y-51919142D01*
X146861047Y-51966761D01*
X146956285Y-52014380D01*
X147146761Y-52014380D01*
X147242000Y-51966761D01*
X147289619Y-51919142D01*
X147337238Y-51823904D01*
X147337238Y-51014380D01*
X147765809Y-51966761D02*
X147908666Y-52014380D01*
X148146761Y-52014380D01*
X148242000Y-51966761D01*
X148289619Y-51919142D01*
X148337238Y-51823904D01*
X148337238Y-51728666D01*
X148289619Y-51633428D01*
X148242000Y-51585809D01*
X148146761Y-51538190D01*
X147956285Y-51490571D01*
X147861047Y-51442952D01*
X147813428Y-51395333D01*
X147765809Y-51300095D01*
X147765809Y-51204857D01*
X147813428Y-51109619D01*
X147861047Y-51062000D01*
X147956285Y-51014380D01*
X148194380Y-51014380D01*
X148337238Y-51062000D01*
X149099142Y-51490571D02*
X149242000Y-51538190D01*
X149289619Y-51585809D01*
X149337238Y-51681047D01*
X149337238Y-51823904D01*
X149289619Y-51919142D01*
X149242000Y-51966761D01*
X149146761Y-52014380D01*
X148765809Y-52014380D01*
X148765809Y-51014380D01*
X149099142Y-51014380D01*
X149194380Y-51062000D01*
X149242000Y-51109619D01*
X149289619Y-51204857D01*
X149289619Y-51300095D01*
X149242000Y-51395333D01*
X149194380Y-51442952D01*
X149099142Y-51490571D01*
X148765809Y-51490571D01*
X150956285Y-51966761D02*
X150861047Y-52014380D01*
X150670571Y-52014380D01*
X150575333Y-51966761D01*
X150527714Y-51919142D01*
X150480095Y-51823904D01*
X150480095Y-51538190D01*
X150527714Y-51442952D01*
X150575333Y-51395333D01*
X150670571Y-51347714D01*
X150861047Y-51347714D01*
X150956285Y-51395333D01*
X151527714Y-52014380D02*
X151432476Y-51966761D01*
X151384857Y-51919142D01*
X151337238Y-51823904D01*
X151337238Y-51538190D01*
X151384857Y-51442952D01*
X151432476Y-51395333D01*
X151527714Y-51347714D01*
X151670571Y-51347714D01*
X151765809Y-51395333D01*
X151813428Y-51442952D01*
X151861047Y-51538190D01*
X151861047Y-51823904D01*
X151813428Y-51919142D01*
X151765809Y-51966761D01*
X151670571Y-52014380D01*
X151527714Y-52014380D01*
X152289619Y-51347714D02*
X152289619Y-52014380D01*
X152289619Y-51442952D02*
X152337238Y-51395333D01*
X152432476Y-51347714D01*
X152575333Y-51347714D01*
X152670571Y-51395333D01*
X152718190Y-51490571D01*
X152718190Y-52014380D01*
X153194380Y-51347714D02*
X153194380Y-52014380D01*
X153194380Y-51442952D02*
X153242000Y-51395333D01*
X153337238Y-51347714D01*
X153480095Y-51347714D01*
X153575333Y-51395333D01*
X153622952Y-51490571D01*
X153622952Y-52014380D01*
X154480095Y-51966761D02*
X154384857Y-52014380D01*
X154194380Y-52014380D01*
X154099142Y-51966761D01*
X154051523Y-51871523D01*
X154051523Y-51490571D01*
X154099142Y-51395333D01*
X154194380Y-51347714D01*
X154384857Y-51347714D01*
X154480095Y-51395333D01*
X154527714Y-51490571D01*
X154527714Y-51585809D01*
X154051523Y-51681047D01*
X155384857Y-51966761D02*
X155289619Y-52014380D01*
X155099142Y-52014380D01*
X155003904Y-51966761D01*
X154956285Y-51919142D01*
X154908666Y-51823904D01*
X154908666Y-51538190D01*
X154956285Y-51442952D01*
X155003904Y-51395333D01*
X155099142Y-51347714D01*
X155289619Y-51347714D01*
X155384857Y-51395333D01*
X155670571Y-51347714D02*
X156051523Y-51347714D01*
X155813428Y-51014380D02*
X155813428Y-51871523D01*
X155861047Y-51966761D01*
X155956285Y-52014380D01*
X156051523Y-52014380D01*
X156527714Y-52014380D02*
X156432476Y-51966761D01*
X156384857Y-51919142D01*
X156337238Y-51823904D01*
X156337238Y-51538190D01*
X156384857Y-51442952D01*
X156432476Y-51395333D01*
X156527714Y-51347714D01*
X156670571Y-51347714D01*
X156765809Y-51395333D01*
X156813428Y-51442952D01*
X156861047Y-51538190D01*
X156861047Y-51823904D01*
X156813428Y-51919142D01*
X156765809Y-51966761D01*
X156670571Y-52014380D01*
X156527714Y-52014380D01*
X157289619Y-52014380D02*
X157289619Y-51347714D01*
X157289619Y-51538190D02*
X157337238Y-51442952D01*
X157384857Y-51395333D01*
X157480095Y-51347714D01*
X157575333Y-51347714D01*
X159099142Y-52014380D02*
X159099142Y-51490571D01*
X159051523Y-51395333D01*
X158956285Y-51347714D01*
X158765809Y-51347714D01*
X158670571Y-51395333D01*
X159099142Y-51966761D02*
X159003904Y-52014380D01*
X158765809Y-52014380D01*
X158670571Y-51966761D01*
X158622952Y-51871523D01*
X158622952Y-51776285D01*
X158670571Y-51681047D01*
X158765809Y-51633428D01*
X159003904Y-51633428D01*
X159099142Y-51585809D01*
X159575333Y-51347714D02*
X159575333Y-52014380D01*
X159575333Y-51442952D02*
X159622952Y-51395333D01*
X159718190Y-51347714D01*
X159861047Y-51347714D01*
X159956285Y-51395333D01*
X160003904Y-51490571D01*
X160003904Y-52014380D01*
X160908666Y-52014380D02*
X160908666Y-51014380D01*
X160908666Y-51966761D02*
X160813428Y-52014380D01*
X160622952Y-52014380D01*
X160527714Y-51966761D01*
X160480095Y-51919142D01*
X160432476Y-51823904D01*
X160432476Y-51538190D01*
X160480095Y-51442952D01*
X160527714Y-51395333D01*
X160622952Y-51347714D01*
X160813428Y-51347714D01*
X160908666Y-51395333D01*
X162099142Y-51728666D02*
X162575333Y-51728666D01*
X162003904Y-52014380D02*
X162337238Y-51014380D01*
X162670571Y-52014380D01*
X162861047Y-51347714D02*
X163242000Y-51347714D01*
X163003904Y-51014380D02*
X163003904Y-51871523D01*
X163051523Y-51966761D01*
X163146761Y-52014380D01*
X163242000Y-52014380D01*
X163575333Y-52014380D02*
X163575333Y-51347714D01*
X163575333Y-51442952D02*
X163622952Y-51395333D01*
X163718190Y-51347714D01*
X163861047Y-51347714D01*
X163956285Y-51395333D01*
X164003904Y-51490571D01*
X164003904Y-52014380D01*
X164003904Y-51490571D02*
X164051523Y-51395333D01*
X164146761Y-51347714D01*
X164289619Y-51347714D01*
X164384857Y-51395333D01*
X164432476Y-51490571D01*
X164432476Y-52014380D01*
X165289619Y-51966761D02*
X165194380Y-52014380D01*
X165003904Y-52014380D01*
X164908666Y-51966761D01*
X164861047Y-51871523D01*
X164861047Y-51490571D01*
X164908666Y-51395333D01*
X165003904Y-51347714D01*
X165194380Y-51347714D01*
X165289619Y-51395333D01*
X165337238Y-51490571D01*
X165337238Y-51585809D01*
X164861047Y-51681047D01*
X165908666Y-52014380D02*
X165813428Y-51966761D01*
X165765809Y-51871523D01*
X165765809Y-51014380D01*
X167480095Y-51966761D02*
X167384857Y-52014380D01*
X167194380Y-52014380D01*
X167099142Y-51966761D01*
X167051523Y-51919142D01*
X167003904Y-51823904D01*
X167003904Y-51538190D01*
X167051523Y-51442952D01*
X167099142Y-51395333D01*
X167194380Y-51347714D01*
X167384857Y-51347714D01*
X167480095Y-51395333D01*
X167908666Y-52014380D02*
X167908666Y-51014380D01*
X168337238Y-52014380D02*
X168337238Y-51490571D01*
X168289619Y-51395333D01*
X168194380Y-51347714D01*
X168051523Y-51347714D01*
X167956285Y-51395333D01*
X167908666Y-51442952D01*
X168813428Y-52014380D02*
X168813428Y-51347714D01*
X168813428Y-51014380D02*
X168765809Y-51062000D01*
X168813428Y-51109619D01*
X168861047Y-51062000D01*
X168813428Y-51014380D01*
X168813428Y-51109619D01*
X169289619Y-51347714D02*
X169289619Y-52347714D01*
X169289619Y-51395333D02*
X169384857Y-51347714D01*
X169575333Y-51347714D01*
X169670571Y-51395333D01*
X169718190Y-51442952D01*
X169765809Y-51538190D01*
X169765809Y-51823904D01*
X169718190Y-51919142D01*
X169670571Y-51966761D01*
X169575333Y-52014380D01*
X169384857Y-52014380D01*
X169289619Y-51966761D01*
X148932476Y-52997714D02*
X149313428Y-52997714D01*
X149075333Y-53664380D02*
X149075333Y-52807238D01*
X149122952Y-52712000D01*
X149218190Y-52664380D01*
X149313428Y-52664380D01*
X150075333Y-53664380D02*
X150075333Y-53140571D01*
X150027714Y-53045333D01*
X149932476Y-52997714D01*
X149742000Y-52997714D01*
X149646761Y-53045333D01*
X150075333Y-53616761D02*
X149980095Y-53664380D01*
X149742000Y-53664380D01*
X149646761Y-53616761D01*
X149599142Y-53521523D01*
X149599142Y-53426285D01*
X149646761Y-53331047D01*
X149742000Y-53283428D01*
X149980095Y-53283428D01*
X150075333Y-53235809D01*
X150980095Y-53616761D02*
X150884857Y-53664380D01*
X150694380Y-53664380D01*
X150599142Y-53616761D01*
X150551523Y-53569142D01*
X150503904Y-53473904D01*
X150503904Y-53188190D01*
X150551523Y-53092952D01*
X150599142Y-53045333D01*
X150694380Y-52997714D01*
X150884857Y-52997714D01*
X150980095Y-53045333D01*
X151789619Y-53616761D02*
X151694380Y-53664380D01*
X151503904Y-53664380D01*
X151408666Y-53616761D01*
X151361047Y-53521523D01*
X151361047Y-53140571D01*
X151408666Y-53045333D01*
X151503904Y-52997714D01*
X151694380Y-52997714D01*
X151789619Y-53045333D01*
X151837238Y-53140571D01*
X151837238Y-53235809D01*
X151361047Y-53331047D01*
X152218190Y-53616761D02*
X152313428Y-53664380D01*
X152503904Y-53664380D01*
X152599142Y-53616761D01*
X152646761Y-53521523D01*
X152646761Y-53473904D01*
X152599142Y-53378666D01*
X152503904Y-53331047D01*
X152361047Y-53331047D01*
X152265809Y-53283428D01*
X152218190Y-53188190D01*
X152218190Y-53140571D01*
X152265809Y-53045333D01*
X152361047Y-52997714D01*
X152503904Y-52997714D01*
X152599142Y-53045333D01*
X154265809Y-53664380D02*
X154265809Y-52664380D01*
X154265809Y-53616761D02*
X154170571Y-53664380D01*
X153980095Y-53664380D01*
X153884857Y-53616761D01*
X153837238Y-53569142D01*
X153789619Y-53473904D01*
X153789619Y-53188190D01*
X153837238Y-53092952D01*
X153884857Y-53045333D01*
X153980095Y-52997714D01*
X154170571Y-52997714D01*
X154265809Y-53045333D01*
X154884857Y-53664380D02*
X154789619Y-53616761D01*
X154742000Y-53569142D01*
X154694380Y-53473904D01*
X154694380Y-53188190D01*
X154742000Y-53092952D01*
X154789619Y-53045333D01*
X154884857Y-52997714D01*
X155027714Y-52997714D01*
X155122952Y-53045333D01*
X155170571Y-53092952D01*
X155218190Y-53188190D01*
X155218190Y-53473904D01*
X155170571Y-53569142D01*
X155122952Y-53616761D01*
X155027714Y-53664380D01*
X154884857Y-53664380D01*
X155551523Y-52997714D02*
X155742000Y-53664380D01*
X155932476Y-53188190D01*
X156122952Y-53664380D01*
X156313428Y-52997714D01*
X156694380Y-52997714D02*
X156694380Y-53664380D01*
X156694380Y-53092952D02*
X156742000Y-53045333D01*
X156837238Y-52997714D01*
X156980095Y-52997714D01*
X157075333Y-53045333D01*
X157122952Y-53140571D01*
X157122952Y-53664380D01*
X158218190Y-52997714D02*
X158599142Y-52997714D01*
X158361047Y-52664380D02*
X158361047Y-53521523D01*
X158408666Y-53616761D01*
X158503904Y-53664380D01*
X158599142Y-53664380D01*
X159075333Y-53664380D02*
X158980095Y-53616761D01*
X158932476Y-53569142D01*
X158884857Y-53473904D01*
X158884857Y-53188190D01*
X158932476Y-53092952D01*
X158980095Y-53045333D01*
X159075333Y-52997714D01*
X159218190Y-52997714D01*
X159313428Y-53045333D01*
X159361047Y-53092952D01*
X159408666Y-53188190D01*
X159408666Y-53473904D01*
X159361047Y-53569142D01*
X159313428Y-53616761D01*
X159218190Y-53664380D01*
X159075333Y-53664380D01*
X159742000Y-52997714D02*
X159932476Y-53664380D01*
X160122952Y-53188190D01*
X160313428Y-53664380D01*
X160503904Y-52997714D01*
X161313428Y-53664380D02*
X161313428Y-53140571D01*
X161265809Y-53045333D01*
X161170571Y-52997714D01*
X160980095Y-52997714D01*
X160884857Y-53045333D01*
X161313428Y-53616761D02*
X161218190Y-53664380D01*
X160980095Y-53664380D01*
X160884857Y-53616761D01*
X160837238Y-53521523D01*
X160837238Y-53426285D01*
X160884857Y-53331047D01*
X160980095Y-53283428D01*
X161218190Y-53283428D01*
X161313428Y-53235809D01*
X161789619Y-53664380D02*
X161789619Y-52997714D01*
X161789619Y-53188190D02*
X161837238Y-53092952D01*
X161884857Y-53045333D01*
X161980095Y-52997714D01*
X162075333Y-52997714D01*
X162837238Y-53664380D02*
X162837238Y-52664380D01*
X162837238Y-53616761D02*
X162742000Y-53664380D01*
X162551523Y-53664380D01*
X162456285Y-53616761D01*
X162408666Y-53569142D01*
X162361047Y-53473904D01*
X162361047Y-53188190D01*
X162408666Y-53092952D01*
X162456285Y-53045333D01*
X162551523Y-52997714D01*
X162742000Y-52997714D01*
X162837238Y-53045333D01*
X163265809Y-53616761D02*
X163361047Y-53664380D01*
X163551523Y-53664380D01*
X163646761Y-53616761D01*
X163694380Y-53521523D01*
X163694380Y-53473904D01*
X163646761Y-53378666D01*
X163551523Y-53331047D01*
X163408666Y-53331047D01*
X163313428Y-53283428D01*
X163265809Y-53188190D01*
X163265809Y-53140571D01*
X163313428Y-53045333D01*
X163408666Y-52997714D01*
X163551523Y-52997714D01*
X163646761Y-53045333D01*
X164884857Y-53664380D02*
X164884857Y-52664380D01*
X165265809Y-52664380D01*
X165361047Y-52712000D01*
X165408666Y-52759619D01*
X165456285Y-52854857D01*
X165456285Y-52997714D01*
X165408666Y-53092952D01*
X165361047Y-53140571D01*
X165265809Y-53188190D01*
X164884857Y-53188190D01*
X166456285Y-53569142D02*
X166408666Y-53616761D01*
X166265809Y-53664380D01*
X166170571Y-53664380D01*
X166027714Y-53616761D01*
X165932476Y-53521523D01*
X165884857Y-53426285D01*
X165837238Y-53235809D01*
X165837238Y-53092952D01*
X165884857Y-52902476D01*
X165932476Y-52807238D01*
X166027714Y-52712000D01*
X166170571Y-52664380D01*
X166265809Y-52664380D01*
X166408666Y-52712000D01*
X166456285Y-52759619D01*
X167218190Y-53140571D02*
X167361047Y-53188190D01*
X167408666Y-53235809D01*
X167456285Y-53331047D01*
X167456285Y-53473904D01*
X167408666Y-53569142D01*
X167361047Y-53616761D01*
X167265809Y-53664380D01*
X166884857Y-53664380D01*
X166884857Y-52664380D01*
X167218190Y-52664380D01*
X167313428Y-52712000D01*
X167361047Y-52759619D01*
X167408666Y-52854857D01*
X167408666Y-52950095D01*
X167361047Y-53045333D01*
X167313428Y-53092952D01*
X167218190Y-53140571D01*
X166884857Y-53140571D01*
D11*
X143510000Y-60960000D02*
X143510000Y-43180000D01*
X173990000Y-60960000D02*
X143510000Y-60960000D01*
X173990000Y-43180000D02*
X173990000Y-60960000D01*
X143510000Y-43180000D02*
X173990000Y-43180000D01*
D10*
X159838666Y-33663380D02*
X159838666Y-32663380D01*
X159838666Y-33139571D02*
X160410095Y-33139571D01*
X160410095Y-33663380D02*
X160410095Y-32663380D01*
X160886285Y-33663380D02*
X160886285Y-32663380D01*
X160886285Y-33139571D02*
X161457714Y-33139571D01*
X161457714Y-33663380D02*
X161457714Y-32663380D01*
X161933904Y-33663380D02*
X161933904Y-32663380D01*
X162505333Y-33663380D02*
X162076761Y-33091952D01*
X162505333Y-32663380D02*
X161933904Y-33234809D01*
X163267238Y-33139571D02*
X163410095Y-33187190D01*
X163457714Y-33234809D01*
X163505333Y-33330047D01*
X163505333Y-33472904D01*
X163457714Y-33568142D01*
X163410095Y-33615761D01*
X163314857Y-33663380D01*
X162933904Y-33663380D01*
X162933904Y-32663380D01*
X163267238Y-32663380D01*
X163362476Y-32711000D01*
X163410095Y-32758619D01*
X163457714Y-32853857D01*
X163457714Y-32949095D01*
X163410095Y-33044333D01*
X163362476Y-33091952D01*
X163267238Y-33139571D01*
X162933904Y-33139571D01*
X165172000Y-33663380D02*
X164695809Y-33663380D01*
X164695809Y-32663380D01*
X165505333Y-33663380D02*
X165505333Y-32996714D01*
X165505333Y-32663380D02*
X165457714Y-32711000D01*
X165505333Y-32758619D01*
X165552952Y-32711000D01*
X165505333Y-32663380D01*
X165505333Y-32758619D01*
X165838666Y-32996714D02*
X166219619Y-32996714D01*
X165981523Y-32663380D02*
X165981523Y-33520523D01*
X166029142Y-33615761D01*
X166124380Y-33663380D01*
X166219619Y-33663380D01*
X166933904Y-33615761D02*
X166838666Y-33663380D01*
X166648190Y-33663380D01*
X166552952Y-33615761D01*
X166505333Y-33520523D01*
X166505333Y-33139571D01*
X166552952Y-33044333D01*
X166648190Y-32996714D01*
X166838666Y-32996714D01*
X166933904Y-33044333D01*
X166981523Y-33139571D01*
X166981523Y-33234809D01*
X166505333Y-33330047D01*
X168124380Y-32758619D02*
X168172000Y-32711000D01*
X168267238Y-32663380D01*
X168505333Y-32663380D01*
X168600571Y-32711000D01*
X168648190Y-32758619D01*
X168695809Y-32853857D01*
X168695809Y-32949095D01*
X168648190Y-33091952D01*
X168076761Y-33663380D01*
X168695809Y-33663380D01*
X169886285Y-33282428D02*
X170648190Y-33282428D01*
X171743428Y-32663380D02*
X172314857Y-32663380D01*
X172029142Y-33663380D02*
X172029142Y-32663380D01*
X173029142Y-33615761D02*
X172933904Y-33663380D01*
X172743428Y-33663380D01*
X172648190Y-33615761D01*
X172600571Y-33520523D01*
X172600571Y-33139571D01*
X172648190Y-33044333D01*
X172743428Y-32996714D01*
X172933904Y-32996714D01*
X173029142Y-33044333D01*
X173076761Y-33139571D01*
X173076761Y-33234809D01*
X172600571Y-33330047D01*
X173886285Y-33615761D02*
X173791047Y-33663380D01*
X173600571Y-33663380D01*
X173505333Y-33615761D01*
X173457714Y-33520523D01*
X173457714Y-33139571D01*
X173505333Y-33044333D01*
X173600571Y-32996714D01*
X173791047Y-32996714D01*
X173886285Y-33044333D01*
X173933904Y-33139571D01*
X173933904Y-33234809D01*
X173457714Y-33330047D01*
X174362476Y-32996714D02*
X174362476Y-33663380D01*
X174362476Y-33091952D02*
X174410095Y-33044333D01*
X174505333Y-32996714D01*
X174648190Y-32996714D01*
X174743428Y-33044333D01*
X174791047Y-33139571D01*
X174791047Y-33663380D01*
X175219619Y-33615761D02*
X175314857Y-33663380D01*
X175505333Y-33663380D01*
X175600571Y-33615761D01*
X175648190Y-33520523D01*
X175648190Y-33472904D01*
X175600571Y-33377666D01*
X175505333Y-33330047D01*
X175362476Y-33330047D01*
X175267238Y-33282428D01*
X175219619Y-33187190D01*
X175219619Y-33139571D01*
X175267238Y-33044333D01*
X175362476Y-32996714D01*
X175505333Y-32996714D01*
X175600571Y-33044333D01*
X175981523Y-32996714D02*
X176219619Y-33663380D01*
X176457714Y-32996714D02*
X176219619Y-33663380D01*
X176124380Y-33901476D01*
X176076761Y-33949095D01*
X175981523Y-33996714D01*
X177552952Y-32758619D02*
X177600571Y-32711000D01*
X177695809Y-32663380D01*
X177933904Y-32663380D01*
X178029142Y-32711000D01*
X178076761Y-32758619D01*
X178124380Y-32853857D01*
X178124380Y-32949095D01*
X178076761Y-33091952D01*
X177505333Y-33663380D01*
X178124380Y-33663380D01*
X178552952Y-33568142D02*
X178600571Y-33615761D01*
X178552952Y-33663380D01*
X178505333Y-33615761D01*
X178552952Y-33568142D01*
X178552952Y-33663380D01*
X179219619Y-32663380D02*
X179314857Y-32663380D01*
X179410095Y-32711000D01*
X179457714Y-32758619D01*
X179505333Y-32853857D01*
X179552952Y-33044333D01*
X179552952Y-33282428D01*
X179505333Y-33472904D01*
X179457714Y-33568142D01*
X179410095Y-33615761D01*
X179314857Y-33663380D01*
X179219619Y-33663380D01*
X179124380Y-33615761D01*
X179076761Y-33568142D01*
X179029142Y-33472904D01*
X178981523Y-33282428D01*
X178981523Y-33044333D01*
X179029142Y-32853857D01*
X179076761Y-32758619D01*
X179124380Y-32711000D01*
X179219619Y-32663380D01*
X165814857Y-35313380D02*
X165481523Y-34837190D01*
X165243428Y-35313380D02*
X165243428Y-34313380D01*
X165624380Y-34313380D01*
X165719619Y-34361000D01*
X165767238Y-34408619D01*
X165814857Y-34503857D01*
X165814857Y-34646714D01*
X165767238Y-34741952D01*
X165719619Y-34789571D01*
X165624380Y-34837190D01*
X165243428Y-34837190D01*
X166624380Y-35265761D02*
X166529142Y-35313380D01*
X166338666Y-35313380D01*
X166243428Y-35265761D01*
X166195809Y-35170523D01*
X166195809Y-34789571D01*
X166243428Y-34694333D01*
X166338666Y-34646714D01*
X166529142Y-34646714D01*
X166624380Y-34694333D01*
X166672000Y-34789571D01*
X166672000Y-34884809D01*
X166195809Y-34980047D01*
X167243428Y-35313380D02*
X167148190Y-35265761D01*
X167100571Y-35170523D01*
X167100571Y-34313380D01*
X168338666Y-34408619D02*
X168386285Y-34361000D01*
X168481523Y-34313380D01*
X168719619Y-34313380D01*
X168814857Y-34361000D01*
X168862476Y-34408619D01*
X168910095Y-34503857D01*
X168910095Y-34599095D01*
X168862476Y-34741952D01*
X168291047Y-35313380D01*
X168910095Y-35313380D01*
X169529142Y-34313380D02*
X169624380Y-34313380D01*
X169719619Y-34361000D01*
X169767238Y-34408619D01*
X169814857Y-34503857D01*
X169862476Y-34694333D01*
X169862476Y-34932428D01*
X169814857Y-35122904D01*
X169767238Y-35218142D01*
X169719619Y-35265761D01*
X169624380Y-35313380D01*
X169529142Y-35313380D01*
X169433904Y-35265761D01*
X169386285Y-35218142D01*
X169338666Y-35122904D01*
X169291047Y-34932428D01*
X169291047Y-34694333D01*
X169338666Y-34503857D01*
X169386285Y-34408619D01*
X169433904Y-34361000D01*
X169529142Y-34313380D01*
X170243428Y-34408619D02*
X170291047Y-34361000D01*
X170386285Y-34313380D01*
X170624380Y-34313380D01*
X170719619Y-34361000D01*
X170767238Y-34408619D01*
X170814857Y-34503857D01*
X170814857Y-34599095D01*
X170767238Y-34741952D01*
X170195809Y-35313380D01*
X170814857Y-35313380D01*
X171433904Y-34313380D02*
X171529142Y-34313380D01*
X171624380Y-34361000D01*
X171672000Y-34408619D01*
X171719619Y-34503857D01*
X171767238Y-34694333D01*
X171767238Y-34932428D01*
X171719619Y-35122904D01*
X171672000Y-35218142D01*
X171624380Y-35265761D01*
X171529142Y-35313380D01*
X171433904Y-35313380D01*
X171338666Y-35265761D01*
X171291047Y-35218142D01*
X171243428Y-35122904D01*
X171195809Y-34932428D01*
X171195809Y-34694333D01*
X171243428Y-34503857D01*
X171291047Y-34408619D01*
X171338666Y-34361000D01*
X171433904Y-34313380D01*
X172195809Y-35218142D02*
X172243428Y-35265761D01*
X172195809Y-35313380D01*
X172148190Y-35265761D01*
X172195809Y-35218142D01*
X172195809Y-35313380D01*
X172862476Y-34313380D02*
X172957714Y-34313380D01*
X173052952Y-34361000D01*
X173100571Y-34408619D01*
X173148190Y-34503857D01*
X173195809Y-34694333D01*
X173195809Y-34932428D01*
X173148190Y-35122904D01*
X173100571Y-35218142D01*
X173052952Y-35265761D01*
X172957714Y-35313380D01*
X172862476Y-35313380D01*
X172767238Y-35265761D01*
X172719619Y-35218142D01*
X172672000Y-35122904D01*
X172624380Y-34932428D01*
X172624380Y-34694333D01*
X172672000Y-34503857D01*
X172719619Y-34408619D01*
X172767238Y-34361000D01*
X172862476Y-34313380D01*
X174052952Y-34313380D02*
X173862476Y-34313380D01*
X173767238Y-34361000D01*
X173719619Y-34408619D01*
X173624380Y-34551476D01*
X173576761Y-34741952D01*
X173576761Y-35122904D01*
X173624380Y-35218142D01*
X173672000Y-35265761D01*
X173767238Y-35313380D01*
X173957714Y-35313380D01*
X174052952Y-35265761D01*
X174100571Y-35218142D01*
X174148190Y-35122904D01*
X174148190Y-34884809D01*
X174100571Y-34789571D01*
X174052952Y-34741952D01*
X173957714Y-34694333D01*
X173767238Y-34694333D01*
X173672000Y-34741952D01*
X173624380Y-34789571D01*
X173576761Y-34884809D01*
D11*
X122212000Y-72338000D02*
X137412000Y-72338000D01*
X122212000Y-77338000D02*
X137412000Y-77338000D01*
X137412000Y-77338000D02*
X137412000Y-72338000D01*
X122212000Y-72338000D02*
X122212000Y-77338000D01*
X189310000Y-76252000D02*
X166710000Y-76252000D01*
X189310000Y-71152000D02*
X189310000Y-76252000D01*
X166710000Y-71152000D02*
X189310000Y-71152000D01*
X166710000Y-71152000D02*
X166710000Y-76252000D01*
D10*
X127603523Y-70826380D02*
X127603523Y-71540666D01*
X127555904Y-71683523D01*
X127460666Y-71778761D01*
X127317809Y-71826380D01*
X127222571Y-71826380D01*
X127841619Y-71921619D02*
X128603523Y-71921619D01*
X129413047Y-71826380D02*
X129079714Y-71350190D01*
X128841619Y-71826380D02*
X128841619Y-70826380D01*
X129222571Y-70826380D01*
X129317809Y-70874000D01*
X129365428Y-70921619D01*
X129413047Y-71016857D01*
X129413047Y-71159714D01*
X129365428Y-71254952D01*
X129317809Y-71302571D01*
X129222571Y-71350190D01*
X128841619Y-71350190D01*
X129984476Y-71826380D02*
X129889238Y-71778761D01*
X129841619Y-71731142D01*
X129794000Y-71635904D01*
X129794000Y-71350190D01*
X129841619Y-71254952D01*
X129889238Y-71207333D01*
X129984476Y-71159714D01*
X130127333Y-71159714D01*
X130222571Y-71207333D01*
X130270190Y-71254952D01*
X130317809Y-71350190D01*
X130317809Y-71635904D01*
X130270190Y-71731142D01*
X130222571Y-71778761D01*
X130127333Y-71826380D01*
X129984476Y-71826380D01*
X130651142Y-71159714D02*
X130841619Y-71826380D01*
X131032095Y-71350190D01*
X131222571Y-71826380D01*
X131413047Y-71159714D01*
X132317809Y-71826380D02*
X131746380Y-71826380D01*
X132032095Y-71826380D02*
X132032095Y-70826380D01*
X131936857Y-70969238D01*
X131841619Y-71064476D01*
X131746380Y-71112095D01*
X176125428Y-69556380D02*
X176125428Y-70270666D01*
X176077809Y-70413523D01*
X175982571Y-70508761D01*
X175839714Y-70556380D01*
X175744476Y-70556380D01*
X176363523Y-70651619D02*
X177125428Y-70651619D01*
X177934952Y-70461142D02*
X177887333Y-70508761D01*
X177744476Y-70556380D01*
X177649238Y-70556380D01*
X177506380Y-70508761D01*
X177411142Y-70413523D01*
X177363523Y-70318285D01*
X177315904Y-70127809D01*
X177315904Y-69984952D01*
X177363523Y-69794476D01*
X177411142Y-69699238D01*
X177506380Y-69604000D01*
X177649238Y-69556380D01*
X177744476Y-69556380D01*
X177887333Y-69604000D01*
X177934952Y-69651619D01*
X178506380Y-70556380D02*
X178411142Y-70508761D01*
X178363523Y-70461142D01*
X178315904Y-70365904D01*
X178315904Y-70080190D01*
X178363523Y-69984952D01*
X178411142Y-69937333D01*
X178506380Y-69889714D01*
X178649238Y-69889714D01*
X178744476Y-69937333D01*
X178792095Y-69984952D01*
X178839714Y-70080190D01*
X178839714Y-70365904D01*
X178792095Y-70461142D01*
X178744476Y-70508761D01*
X178649238Y-70556380D01*
X178506380Y-70556380D01*
X179411142Y-70556380D02*
X179315904Y-70508761D01*
X179268285Y-70413523D01*
X179268285Y-69556380D01*
X180315904Y-70556380D02*
X179744476Y-70556380D01*
X180030190Y-70556380D02*
X180030190Y-69556380D01*
X179934952Y-69699238D01*
X179839714Y-69794476D01*
X179744476Y-69842095D01*
X157988095Y-61682380D02*
X157988095Y-62491904D01*
X158035714Y-62587142D01*
X158083333Y-62634761D01*
X158178571Y-62682380D01*
X158369047Y-62682380D01*
X158464285Y-62634761D01*
X158511904Y-62587142D01*
X158559523Y-62491904D01*
X158559523Y-61682380D01*
X159559523Y-62682380D02*
X158988095Y-62682380D01*
X159273809Y-62682380D02*
X159273809Y-61682380D01*
X159178571Y-61825238D01*
X159083333Y-61920476D01*
X158988095Y-61968095D01*
M02*
