G04 #@! TF.GenerationSoftware,KiCad,Pcbnew,(5.1.6-0-10_14)*
G04 #@! TF.CreationDate,2020-05-23T22:31:31+08:00*
G04 #@! TF.ProjectId,HHKB Lite 2,48484b42-204c-4697-9465-20322e6b6963,2020.06*
G04 #@! TF.SameCoordinates,Original*
G04 #@! TF.FileFunction,Copper,L1,Top*
G04 #@! TF.FilePolarity,Positive*
%FSLAX46Y46*%
G04 Gerber Fmt 4.6, Leading zero omitted, Abs format (unit mm)*
G04 Created by KiCad (PCBNEW (5.1.6-0-10_14)) date 2020-05-23 22:31:31*
%MOMM*%
%LPD*%
G01*
G04 APERTURE LIST*
G04 #@! TA.AperFunction,ComponentPad*
%ADD10C,1.524000*%
G04 #@! TD*
G04 #@! TA.AperFunction,ComponentPad*
%ADD11R,1.524000X1.524000*%
G04 #@! TD*
G04 #@! TA.AperFunction,ComponentPad*
%ADD12C,1.600000*%
G04 #@! TD*
G04 #@! TA.AperFunction,ComponentPad*
%ADD13R,1.600000X1.600000*%
G04 #@! TD*
G04 #@! TA.AperFunction,ViaPad*
%ADD14C,0.800000*%
G04 #@! TD*
G04 #@! TA.AperFunction,Conductor*
%ADD15C,0.250000*%
G04 #@! TD*
G04 #@! TA.AperFunction,Conductor*
%ADD16C,0.254000*%
G04 #@! TD*
G04 APERTURE END LIST*
D10*
X125412000Y-73188000D03*
X126662000Y-75438000D03*
X127912000Y-73188000D03*
X129162000Y-75438000D03*
X130412000Y-73188000D03*
X131662000Y-75438000D03*
X132912000Y-73188000D03*
D11*
X134162000Y-75438000D03*
D10*
X186160000Y-75402000D03*
X184910000Y-73152000D03*
X183660000Y-75402000D03*
X182410000Y-73152000D03*
X181160000Y-75402000D03*
X179910000Y-73152000D03*
X178660000Y-75402000D03*
X177410000Y-73152000D03*
X176160000Y-75402000D03*
X174910000Y-73152000D03*
X173660000Y-75402000D03*
X172410000Y-73152000D03*
X171160000Y-75402000D03*
D11*
X169910000Y-73152000D03*
D12*
X172720000Y-52070000D03*
D13*
X144780000Y-44450000D03*
D12*
X147320000Y-44450000D03*
X149860000Y-44450000D03*
X152400000Y-44450000D03*
X154940000Y-44450000D03*
X157480000Y-44450000D03*
X160020000Y-44450000D03*
X162560000Y-44450000D03*
X165100000Y-44450000D03*
X167640000Y-44450000D03*
X170180000Y-44450000D03*
X172720000Y-44450000D03*
X172720000Y-46990000D03*
X172720000Y-49530000D03*
X172720000Y-54610000D03*
X172720000Y-57150000D03*
X172720000Y-59690000D03*
X170180000Y-59690000D03*
X167640000Y-59690000D03*
X165100000Y-59690000D03*
X162560000Y-59690000D03*
X160020000Y-59690000D03*
X157480000Y-59690000D03*
X154940000Y-59690000D03*
X152400000Y-59690000D03*
X149860000Y-59690000D03*
X147320000Y-59690000D03*
X144780000Y-59690000D03*
X154940000Y-46990000D03*
X154940000Y-57150000D03*
D14*
X154940000Y-52070000D03*
D15*
X186160000Y-74324370D02*
X186160000Y-75402000D01*
X186160000Y-54315768D02*
X186160000Y-74324370D01*
X173819204Y-41974972D02*
X186160000Y-54315768D01*
X165035028Y-41974972D02*
X173819204Y-41974972D01*
X162560000Y-44450000D02*
X165035028Y-41974972D01*
X184910000Y-72074370D02*
X184910000Y-73152000D01*
X173632803Y-42424981D02*
X184910000Y-53702178D01*
X167125019Y-42424981D02*
X173632803Y-42424981D01*
X184910000Y-53702178D02*
X184910000Y-72074370D01*
X165100000Y-44450000D02*
X167125019Y-42424981D01*
X183660000Y-74324370D02*
X183660000Y-75402000D01*
X183660000Y-53088588D02*
X183660000Y-74324370D01*
X173446402Y-42874990D02*
X183660000Y-53088588D01*
X169215010Y-42874990D02*
X173446402Y-42874990D01*
X167640000Y-44450000D02*
X169215010Y-42874990D01*
X170979999Y-43650001D02*
X170180000Y-44450000D01*
X173260001Y-43324999D02*
X171305001Y-43324999D01*
X182410000Y-52474998D02*
X173260001Y-43324999D01*
X171305001Y-43324999D02*
X170979999Y-43650001D01*
X182410000Y-73152000D02*
X182410000Y-52474998D01*
X181160000Y-52890000D02*
X181160000Y-75402000D01*
X172720000Y-44450000D02*
X181160000Y-52890000D01*
X179910000Y-54180000D02*
X172720000Y-46990000D01*
X179910000Y-73152000D02*
X179910000Y-54180000D01*
X178660000Y-63090000D02*
X178660000Y-75402000D01*
X172720000Y-57150000D02*
X178660000Y-63090000D01*
X177410000Y-64380000D02*
X177410000Y-73152000D01*
X172720000Y-59690000D02*
X177410000Y-64380000D01*
X176160000Y-65670000D02*
X176160000Y-75402000D01*
X170180000Y-59690000D02*
X176160000Y-65670000D01*
X174910000Y-66960000D02*
X174910000Y-73152000D01*
X167640000Y-59690000D02*
X174910000Y-66960000D01*
X173660000Y-68250000D02*
X173660000Y-75402000D01*
X165100000Y-59690000D02*
X173660000Y-68250000D01*
X172410000Y-69540000D02*
X172410000Y-73152000D01*
X162560000Y-59690000D02*
X172410000Y-69540000D01*
X171160000Y-74324370D02*
X171160000Y-75402000D01*
X171160000Y-70830000D02*
X171160000Y-74324370D01*
X160020000Y-59690000D02*
X171160000Y-70830000D01*
X169910000Y-72120000D02*
X169910000Y-73152000D01*
X157480000Y-59690000D02*
X169910000Y-72120000D01*
X125412000Y-72110370D02*
X125412000Y-73188000D01*
X141976199Y-42424981D02*
X125412000Y-58989180D01*
X152914981Y-42424981D02*
X141976199Y-42424981D01*
X125412000Y-58989180D02*
X125412000Y-72110370D01*
X154940000Y-44450000D02*
X152914981Y-42424981D01*
X142162600Y-42874990D02*
X126662000Y-58375590D01*
X126662000Y-74360370D02*
X126662000Y-75438000D01*
X126662000Y-58375590D02*
X126662000Y-74360370D01*
X150824990Y-42874990D02*
X142162600Y-42874990D01*
X152400000Y-44450000D02*
X150824990Y-42874990D01*
X127912000Y-72110370D02*
X127912000Y-73188000D01*
X127912000Y-57762000D02*
X127912000Y-72110370D01*
X142349001Y-43324999D02*
X127912000Y-57762000D01*
X148734999Y-43324999D02*
X142349001Y-43324999D01*
X149860000Y-44450000D02*
X148734999Y-43324999D01*
X129162000Y-74360370D02*
X129162000Y-75438000D01*
X129162000Y-62608000D02*
X129162000Y-74360370D01*
X147320000Y-44450000D02*
X129162000Y-62608000D01*
X131173999Y-72426001D02*
X130412000Y-73188000D01*
X131949010Y-71650990D02*
X131173999Y-72426001D01*
X135359010Y-71650990D02*
X131949010Y-71650990D01*
X147320000Y-59690000D02*
X135359010Y-71650990D01*
X131662000Y-74360370D02*
X131662000Y-75438000D01*
X132390239Y-72100999D02*
X131662000Y-72829238D01*
X131662000Y-72829238D02*
X131662000Y-74360370D01*
X137449001Y-72100999D02*
X132390239Y-72100999D01*
X149860000Y-59690000D02*
X137449001Y-72100999D01*
X138902000Y-73188000D02*
X132912000Y-73188000D01*
X152400000Y-59690000D02*
X138902000Y-73188000D01*
X135174000Y-75438000D02*
X134162000Y-75438000D01*
X139192000Y-75438000D02*
X135174000Y-75438000D01*
X154940000Y-59690000D02*
X139192000Y-75438000D01*
D16*
G36*
X171605363Y-45364759D02*
G01*
X171805241Y-45564637D01*
X172037759Y-45720000D01*
X171805241Y-45875363D01*
X171605363Y-46075241D01*
X171448320Y-46310273D01*
X171340147Y-46571426D01*
X171285000Y-46848665D01*
X171285000Y-47131335D01*
X171340147Y-47408574D01*
X171448320Y-47669727D01*
X171605363Y-47904759D01*
X171805241Y-48104637D01*
X172037759Y-48260000D01*
X171805241Y-48415363D01*
X171605363Y-48615241D01*
X171448320Y-48850273D01*
X171340147Y-49111426D01*
X171285000Y-49388665D01*
X171285000Y-49671335D01*
X171340147Y-49948574D01*
X171448320Y-50209727D01*
X171605363Y-50444759D01*
X171805241Y-50644637D01*
X172039128Y-50800915D01*
X171978486Y-50833329D01*
X171906903Y-51077298D01*
X172720000Y-51890395D01*
X173533097Y-51077298D01*
X173461514Y-50833329D01*
X173397008Y-50802806D01*
X173399727Y-50801680D01*
X173634759Y-50644637D01*
X173834637Y-50444759D01*
X173991680Y-50209727D01*
X174099853Y-49948574D01*
X174155000Y-49671335D01*
X174155000Y-49499801D01*
X179150001Y-54494803D01*
X179150001Y-62505199D01*
X174118688Y-57473887D01*
X174155000Y-57291335D01*
X174155000Y-57008665D01*
X174099853Y-56731426D01*
X173991680Y-56470273D01*
X173834637Y-56235241D01*
X173634759Y-56035363D01*
X173402241Y-55880000D01*
X173634759Y-55724637D01*
X173834637Y-55524759D01*
X173991680Y-55289727D01*
X174099853Y-55028574D01*
X174155000Y-54751335D01*
X174155000Y-54468665D01*
X174099853Y-54191426D01*
X173991680Y-53930273D01*
X173834637Y-53695241D01*
X173634759Y-53495363D01*
X173400872Y-53339085D01*
X173461514Y-53306671D01*
X173533097Y-53062702D01*
X172720000Y-52249605D01*
X171906903Y-53062702D01*
X171978486Y-53306671D01*
X172042992Y-53337194D01*
X172040273Y-53338320D01*
X171805241Y-53495363D01*
X171605363Y-53695241D01*
X171448320Y-53930273D01*
X171340147Y-54191426D01*
X171285000Y-54468665D01*
X171285000Y-54751335D01*
X171340147Y-55028574D01*
X171448320Y-55289727D01*
X171605363Y-55524759D01*
X171805241Y-55724637D01*
X172037759Y-55880000D01*
X171805241Y-56035363D01*
X171605363Y-56235241D01*
X171448320Y-56470273D01*
X171340147Y-56731426D01*
X171285000Y-57008665D01*
X171285000Y-57291335D01*
X171340147Y-57568574D01*
X171448320Y-57829727D01*
X171605363Y-58064759D01*
X171805241Y-58264637D01*
X172037759Y-58420000D01*
X171805241Y-58575363D01*
X171605363Y-58775241D01*
X171450000Y-59007759D01*
X171294637Y-58775241D01*
X171094759Y-58575363D01*
X170859727Y-58418320D01*
X170598574Y-58310147D01*
X170321335Y-58255000D01*
X170038665Y-58255000D01*
X169761426Y-58310147D01*
X169500273Y-58418320D01*
X169265241Y-58575363D01*
X169065363Y-58775241D01*
X168910000Y-59007759D01*
X168754637Y-58775241D01*
X168554759Y-58575363D01*
X168319727Y-58418320D01*
X168058574Y-58310147D01*
X167781335Y-58255000D01*
X167498665Y-58255000D01*
X167221426Y-58310147D01*
X166960273Y-58418320D01*
X166725241Y-58575363D01*
X166525363Y-58775241D01*
X166370000Y-59007759D01*
X166214637Y-58775241D01*
X166014759Y-58575363D01*
X165779727Y-58418320D01*
X165518574Y-58310147D01*
X165241335Y-58255000D01*
X164958665Y-58255000D01*
X164681426Y-58310147D01*
X164420273Y-58418320D01*
X164185241Y-58575363D01*
X163985363Y-58775241D01*
X163830000Y-59007759D01*
X163674637Y-58775241D01*
X163474759Y-58575363D01*
X163239727Y-58418320D01*
X162978574Y-58310147D01*
X162701335Y-58255000D01*
X162418665Y-58255000D01*
X162141426Y-58310147D01*
X161880273Y-58418320D01*
X161645241Y-58575363D01*
X161445363Y-58775241D01*
X161290000Y-59007759D01*
X161134637Y-58775241D01*
X160934759Y-58575363D01*
X160699727Y-58418320D01*
X160438574Y-58310147D01*
X160161335Y-58255000D01*
X159878665Y-58255000D01*
X159601426Y-58310147D01*
X159340273Y-58418320D01*
X159105241Y-58575363D01*
X158905363Y-58775241D01*
X158750000Y-59007759D01*
X158594637Y-58775241D01*
X158394759Y-58575363D01*
X158159727Y-58418320D01*
X157898574Y-58310147D01*
X157621335Y-58255000D01*
X157338665Y-58255000D01*
X157061426Y-58310147D01*
X156800273Y-58418320D01*
X156565241Y-58575363D01*
X156365363Y-58775241D01*
X156210000Y-59007759D01*
X156054637Y-58775241D01*
X155854759Y-58575363D01*
X155622241Y-58420000D01*
X155854759Y-58264637D01*
X156054637Y-58064759D01*
X156211680Y-57829727D01*
X156319853Y-57568574D01*
X156375000Y-57291335D01*
X156375000Y-57008665D01*
X156319853Y-56731426D01*
X156211680Y-56470273D01*
X156054637Y-56235241D01*
X155854759Y-56035363D01*
X155619727Y-55878320D01*
X155358574Y-55770147D01*
X155081335Y-55715000D01*
X154798665Y-55715000D01*
X154521426Y-55770147D01*
X154260273Y-55878320D01*
X154025241Y-56035363D01*
X153825363Y-56235241D01*
X153668320Y-56470273D01*
X153560147Y-56731426D01*
X153505000Y-57008665D01*
X153505000Y-57291335D01*
X153560147Y-57568574D01*
X153668320Y-57829727D01*
X153825363Y-58064759D01*
X154025241Y-58264637D01*
X154257759Y-58420000D01*
X154025241Y-58575363D01*
X153825363Y-58775241D01*
X153670000Y-59007759D01*
X153514637Y-58775241D01*
X153314759Y-58575363D01*
X153079727Y-58418320D01*
X152818574Y-58310147D01*
X152541335Y-58255000D01*
X152258665Y-58255000D01*
X151981426Y-58310147D01*
X151720273Y-58418320D01*
X151485241Y-58575363D01*
X151285363Y-58775241D01*
X151130000Y-59007759D01*
X150974637Y-58775241D01*
X150774759Y-58575363D01*
X150539727Y-58418320D01*
X150278574Y-58310147D01*
X150001335Y-58255000D01*
X149718665Y-58255000D01*
X149441426Y-58310147D01*
X149180273Y-58418320D01*
X148945241Y-58575363D01*
X148745363Y-58775241D01*
X148590000Y-59007759D01*
X148434637Y-58775241D01*
X148234759Y-58575363D01*
X147999727Y-58418320D01*
X147738574Y-58310147D01*
X147461335Y-58255000D01*
X147178665Y-58255000D01*
X146901426Y-58310147D01*
X146640273Y-58418320D01*
X146405241Y-58575363D01*
X146205363Y-58775241D01*
X146050000Y-59007759D01*
X145894637Y-58775241D01*
X145694759Y-58575363D01*
X145459727Y-58418320D01*
X145198574Y-58310147D01*
X144921335Y-58255000D01*
X144638665Y-58255000D01*
X144361426Y-58310147D01*
X144100273Y-58418320D01*
X143865241Y-58575363D01*
X143665363Y-58775241D01*
X143508320Y-59010273D01*
X143400147Y-59271426D01*
X143345000Y-59548665D01*
X143345000Y-59831335D01*
X143400147Y-60108574D01*
X143508320Y-60369727D01*
X143665363Y-60604759D01*
X143865241Y-60804637D01*
X144100273Y-60961680D01*
X144361426Y-61069853D01*
X144638665Y-61125000D01*
X144810198Y-61125000D01*
X135044209Y-70890990D01*
X131986332Y-70890990D01*
X131949009Y-70887314D01*
X131911686Y-70890990D01*
X131911677Y-70890990D01*
X131800024Y-70901987D01*
X131656763Y-70945444D01*
X131524733Y-71016016D01*
X131441093Y-71084658D01*
X131409009Y-71110989D01*
X131385211Y-71139988D01*
X130703571Y-71821628D01*
X130549592Y-71791000D01*
X130274408Y-71791000D01*
X130004510Y-71844686D01*
X129922000Y-71878863D01*
X129922000Y-62922801D01*
X140876740Y-51968061D01*
X153905000Y-51968061D01*
X153905000Y-52171939D01*
X153944774Y-52371898D01*
X154022795Y-52560256D01*
X154136063Y-52729774D01*
X154280226Y-52873937D01*
X154449744Y-52987205D01*
X154638102Y-53065226D01*
X154838061Y-53105000D01*
X155041939Y-53105000D01*
X155241898Y-53065226D01*
X155430256Y-52987205D01*
X155599774Y-52873937D01*
X155743937Y-52729774D01*
X155857205Y-52560256D01*
X155935226Y-52371898D01*
X155975000Y-52171939D01*
X155975000Y-52140512D01*
X171279783Y-52140512D01*
X171321213Y-52420130D01*
X171416397Y-52686292D01*
X171483329Y-52811514D01*
X171727298Y-52883097D01*
X172540395Y-52070000D01*
X172899605Y-52070000D01*
X173712702Y-52883097D01*
X173956671Y-52811514D01*
X174077571Y-52556004D01*
X174146300Y-52281816D01*
X174160217Y-51999488D01*
X174118787Y-51719870D01*
X174023603Y-51453708D01*
X173956671Y-51328486D01*
X173712702Y-51256903D01*
X172899605Y-52070000D01*
X172540395Y-52070000D01*
X171727298Y-51256903D01*
X171483329Y-51328486D01*
X171362429Y-51583996D01*
X171293700Y-51858184D01*
X171279783Y-52140512D01*
X155975000Y-52140512D01*
X155975000Y-51968061D01*
X155935226Y-51768102D01*
X155857205Y-51579744D01*
X155743937Y-51410226D01*
X155599774Y-51266063D01*
X155430256Y-51152795D01*
X155241898Y-51074774D01*
X155041939Y-51035000D01*
X154838061Y-51035000D01*
X154638102Y-51074774D01*
X154449744Y-51152795D01*
X154280226Y-51266063D01*
X154136063Y-51410226D01*
X154022795Y-51579744D01*
X153944774Y-51768102D01*
X153905000Y-51968061D01*
X140876740Y-51968061D01*
X146996114Y-45848688D01*
X147178665Y-45885000D01*
X147461335Y-45885000D01*
X147738574Y-45829853D01*
X147999727Y-45721680D01*
X148234759Y-45564637D01*
X148434637Y-45364759D01*
X148590000Y-45132241D01*
X148745363Y-45364759D01*
X148945241Y-45564637D01*
X149180273Y-45721680D01*
X149441426Y-45829853D01*
X149718665Y-45885000D01*
X150001335Y-45885000D01*
X150278574Y-45829853D01*
X150539727Y-45721680D01*
X150774759Y-45564637D01*
X150974637Y-45364759D01*
X151130000Y-45132241D01*
X151285363Y-45364759D01*
X151485241Y-45564637D01*
X151720273Y-45721680D01*
X151981426Y-45829853D01*
X152258665Y-45885000D01*
X152541335Y-45885000D01*
X152818574Y-45829853D01*
X153079727Y-45721680D01*
X153314759Y-45564637D01*
X153514637Y-45364759D01*
X153670000Y-45132241D01*
X153825363Y-45364759D01*
X154025241Y-45564637D01*
X154257759Y-45720000D01*
X154025241Y-45875363D01*
X153825363Y-46075241D01*
X153668320Y-46310273D01*
X153560147Y-46571426D01*
X153505000Y-46848665D01*
X153505000Y-47131335D01*
X153560147Y-47408574D01*
X153668320Y-47669727D01*
X153825363Y-47904759D01*
X154025241Y-48104637D01*
X154260273Y-48261680D01*
X154521426Y-48369853D01*
X154798665Y-48425000D01*
X155081335Y-48425000D01*
X155358574Y-48369853D01*
X155619727Y-48261680D01*
X155854759Y-48104637D01*
X156054637Y-47904759D01*
X156211680Y-47669727D01*
X156319853Y-47408574D01*
X156375000Y-47131335D01*
X156375000Y-46848665D01*
X156319853Y-46571426D01*
X156211680Y-46310273D01*
X156054637Y-46075241D01*
X155854759Y-45875363D01*
X155622241Y-45720000D01*
X155854759Y-45564637D01*
X156054637Y-45364759D01*
X156210000Y-45132241D01*
X156365363Y-45364759D01*
X156565241Y-45564637D01*
X156800273Y-45721680D01*
X157061426Y-45829853D01*
X157338665Y-45885000D01*
X157621335Y-45885000D01*
X157898574Y-45829853D01*
X158159727Y-45721680D01*
X158394759Y-45564637D01*
X158594637Y-45364759D01*
X158750000Y-45132241D01*
X158905363Y-45364759D01*
X159105241Y-45564637D01*
X159340273Y-45721680D01*
X159601426Y-45829853D01*
X159878665Y-45885000D01*
X160161335Y-45885000D01*
X160438574Y-45829853D01*
X160699727Y-45721680D01*
X160934759Y-45564637D01*
X161134637Y-45364759D01*
X161290000Y-45132241D01*
X161445363Y-45364759D01*
X161645241Y-45564637D01*
X161880273Y-45721680D01*
X162141426Y-45829853D01*
X162418665Y-45885000D01*
X162701335Y-45885000D01*
X162978574Y-45829853D01*
X163239727Y-45721680D01*
X163474759Y-45564637D01*
X163674637Y-45364759D01*
X163830000Y-45132241D01*
X163985363Y-45364759D01*
X164185241Y-45564637D01*
X164420273Y-45721680D01*
X164681426Y-45829853D01*
X164958665Y-45885000D01*
X165241335Y-45885000D01*
X165518574Y-45829853D01*
X165779727Y-45721680D01*
X166014759Y-45564637D01*
X166214637Y-45364759D01*
X166370000Y-45132241D01*
X166525363Y-45364759D01*
X166725241Y-45564637D01*
X166960273Y-45721680D01*
X167221426Y-45829853D01*
X167498665Y-45885000D01*
X167781335Y-45885000D01*
X168058574Y-45829853D01*
X168319727Y-45721680D01*
X168554759Y-45564637D01*
X168754637Y-45364759D01*
X168910000Y-45132241D01*
X169065363Y-45364759D01*
X169265241Y-45564637D01*
X169500273Y-45721680D01*
X169761426Y-45829853D01*
X170038665Y-45885000D01*
X170321335Y-45885000D01*
X170598574Y-45829853D01*
X170859727Y-45721680D01*
X171094759Y-45564637D01*
X171294637Y-45364759D01*
X171450000Y-45132241D01*
X171605363Y-45364759D01*
G37*
X171605363Y-45364759D02*
X171805241Y-45564637D01*
X172037759Y-45720000D01*
X171805241Y-45875363D01*
X171605363Y-46075241D01*
X171448320Y-46310273D01*
X171340147Y-46571426D01*
X171285000Y-46848665D01*
X171285000Y-47131335D01*
X171340147Y-47408574D01*
X171448320Y-47669727D01*
X171605363Y-47904759D01*
X171805241Y-48104637D01*
X172037759Y-48260000D01*
X171805241Y-48415363D01*
X171605363Y-48615241D01*
X171448320Y-48850273D01*
X171340147Y-49111426D01*
X171285000Y-49388665D01*
X171285000Y-49671335D01*
X171340147Y-49948574D01*
X171448320Y-50209727D01*
X171605363Y-50444759D01*
X171805241Y-50644637D01*
X172039128Y-50800915D01*
X171978486Y-50833329D01*
X171906903Y-51077298D01*
X172720000Y-51890395D01*
X173533097Y-51077298D01*
X173461514Y-50833329D01*
X173397008Y-50802806D01*
X173399727Y-50801680D01*
X173634759Y-50644637D01*
X173834637Y-50444759D01*
X173991680Y-50209727D01*
X174099853Y-49948574D01*
X174155000Y-49671335D01*
X174155000Y-49499801D01*
X179150001Y-54494803D01*
X179150001Y-62505199D01*
X174118688Y-57473887D01*
X174155000Y-57291335D01*
X174155000Y-57008665D01*
X174099853Y-56731426D01*
X173991680Y-56470273D01*
X173834637Y-56235241D01*
X173634759Y-56035363D01*
X173402241Y-55880000D01*
X173634759Y-55724637D01*
X173834637Y-55524759D01*
X173991680Y-55289727D01*
X174099853Y-55028574D01*
X174155000Y-54751335D01*
X174155000Y-54468665D01*
X174099853Y-54191426D01*
X173991680Y-53930273D01*
X173834637Y-53695241D01*
X173634759Y-53495363D01*
X173400872Y-53339085D01*
X173461514Y-53306671D01*
X173533097Y-53062702D01*
X172720000Y-52249605D01*
X171906903Y-53062702D01*
X171978486Y-53306671D01*
X172042992Y-53337194D01*
X172040273Y-53338320D01*
X171805241Y-53495363D01*
X171605363Y-53695241D01*
X171448320Y-53930273D01*
X171340147Y-54191426D01*
X171285000Y-54468665D01*
X171285000Y-54751335D01*
X171340147Y-55028574D01*
X171448320Y-55289727D01*
X171605363Y-55524759D01*
X171805241Y-55724637D01*
X172037759Y-55880000D01*
X171805241Y-56035363D01*
X171605363Y-56235241D01*
X171448320Y-56470273D01*
X171340147Y-56731426D01*
X171285000Y-57008665D01*
X171285000Y-57291335D01*
X171340147Y-57568574D01*
X171448320Y-57829727D01*
X171605363Y-58064759D01*
X171805241Y-58264637D01*
X172037759Y-58420000D01*
X171805241Y-58575363D01*
X171605363Y-58775241D01*
X171450000Y-59007759D01*
X171294637Y-58775241D01*
X171094759Y-58575363D01*
X170859727Y-58418320D01*
X170598574Y-58310147D01*
X170321335Y-58255000D01*
X170038665Y-58255000D01*
X169761426Y-58310147D01*
X169500273Y-58418320D01*
X169265241Y-58575363D01*
X169065363Y-58775241D01*
X168910000Y-59007759D01*
X168754637Y-58775241D01*
X168554759Y-58575363D01*
X168319727Y-58418320D01*
X168058574Y-58310147D01*
X167781335Y-58255000D01*
X167498665Y-58255000D01*
X167221426Y-58310147D01*
X166960273Y-58418320D01*
X166725241Y-58575363D01*
X166525363Y-58775241D01*
X166370000Y-59007759D01*
X166214637Y-58775241D01*
X166014759Y-58575363D01*
X165779727Y-58418320D01*
X165518574Y-58310147D01*
X165241335Y-58255000D01*
X164958665Y-58255000D01*
X164681426Y-58310147D01*
X164420273Y-58418320D01*
X164185241Y-58575363D01*
X163985363Y-58775241D01*
X163830000Y-59007759D01*
X163674637Y-58775241D01*
X163474759Y-58575363D01*
X163239727Y-58418320D01*
X162978574Y-58310147D01*
X162701335Y-58255000D01*
X162418665Y-58255000D01*
X162141426Y-58310147D01*
X161880273Y-58418320D01*
X161645241Y-58575363D01*
X161445363Y-58775241D01*
X161290000Y-59007759D01*
X161134637Y-58775241D01*
X160934759Y-58575363D01*
X160699727Y-58418320D01*
X160438574Y-58310147D01*
X160161335Y-58255000D01*
X159878665Y-58255000D01*
X159601426Y-58310147D01*
X159340273Y-58418320D01*
X159105241Y-58575363D01*
X158905363Y-58775241D01*
X158750000Y-59007759D01*
X158594637Y-58775241D01*
X158394759Y-58575363D01*
X158159727Y-58418320D01*
X157898574Y-58310147D01*
X157621335Y-58255000D01*
X157338665Y-58255000D01*
X157061426Y-58310147D01*
X156800273Y-58418320D01*
X156565241Y-58575363D01*
X156365363Y-58775241D01*
X156210000Y-59007759D01*
X156054637Y-58775241D01*
X155854759Y-58575363D01*
X155622241Y-58420000D01*
X155854759Y-58264637D01*
X156054637Y-58064759D01*
X156211680Y-57829727D01*
X156319853Y-57568574D01*
X156375000Y-57291335D01*
X156375000Y-57008665D01*
X156319853Y-56731426D01*
X156211680Y-56470273D01*
X156054637Y-56235241D01*
X155854759Y-56035363D01*
X155619727Y-55878320D01*
X155358574Y-55770147D01*
X155081335Y-55715000D01*
X154798665Y-55715000D01*
X154521426Y-55770147D01*
X154260273Y-55878320D01*
X154025241Y-56035363D01*
X153825363Y-56235241D01*
X153668320Y-56470273D01*
X153560147Y-56731426D01*
X153505000Y-57008665D01*
X153505000Y-57291335D01*
X153560147Y-57568574D01*
X153668320Y-57829727D01*
X153825363Y-58064759D01*
X154025241Y-58264637D01*
X154257759Y-58420000D01*
X154025241Y-58575363D01*
X153825363Y-58775241D01*
X153670000Y-59007759D01*
X153514637Y-58775241D01*
X153314759Y-58575363D01*
X153079727Y-58418320D01*
X152818574Y-58310147D01*
X152541335Y-58255000D01*
X152258665Y-58255000D01*
X151981426Y-58310147D01*
X151720273Y-58418320D01*
X151485241Y-58575363D01*
X151285363Y-58775241D01*
X151130000Y-59007759D01*
X150974637Y-58775241D01*
X150774759Y-58575363D01*
X150539727Y-58418320D01*
X150278574Y-58310147D01*
X150001335Y-58255000D01*
X149718665Y-58255000D01*
X149441426Y-58310147D01*
X149180273Y-58418320D01*
X148945241Y-58575363D01*
X148745363Y-58775241D01*
X148590000Y-59007759D01*
X148434637Y-58775241D01*
X148234759Y-58575363D01*
X147999727Y-58418320D01*
X147738574Y-58310147D01*
X147461335Y-58255000D01*
X147178665Y-58255000D01*
X146901426Y-58310147D01*
X146640273Y-58418320D01*
X146405241Y-58575363D01*
X146205363Y-58775241D01*
X146050000Y-59007759D01*
X145894637Y-58775241D01*
X145694759Y-58575363D01*
X145459727Y-58418320D01*
X145198574Y-58310147D01*
X144921335Y-58255000D01*
X144638665Y-58255000D01*
X144361426Y-58310147D01*
X144100273Y-58418320D01*
X143865241Y-58575363D01*
X143665363Y-58775241D01*
X143508320Y-59010273D01*
X143400147Y-59271426D01*
X143345000Y-59548665D01*
X143345000Y-59831335D01*
X143400147Y-60108574D01*
X143508320Y-60369727D01*
X143665363Y-60604759D01*
X143865241Y-60804637D01*
X144100273Y-60961680D01*
X144361426Y-61069853D01*
X144638665Y-61125000D01*
X144810198Y-61125000D01*
X135044209Y-70890990D01*
X131986332Y-70890990D01*
X131949009Y-70887314D01*
X131911686Y-70890990D01*
X131911677Y-70890990D01*
X131800024Y-70901987D01*
X131656763Y-70945444D01*
X131524733Y-71016016D01*
X131441093Y-71084658D01*
X131409009Y-71110989D01*
X131385211Y-71139988D01*
X130703571Y-71821628D01*
X130549592Y-71791000D01*
X130274408Y-71791000D01*
X130004510Y-71844686D01*
X129922000Y-71878863D01*
X129922000Y-62922801D01*
X140876740Y-51968061D01*
X153905000Y-51968061D01*
X153905000Y-52171939D01*
X153944774Y-52371898D01*
X154022795Y-52560256D01*
X154136063Y-52729774D01*
X154280226Y-52873937D01*
X154449744Y-52987205D01*
X154638102Y-53065226D01*
X154838061Y-53105000D01*
X155041939Y-53105000D01*
X155241898Y-53065226D01*
X155430256Y-52987205D01*
X155599774Y-52873937D01*
X155743937Y-52729774D01*
X155857205Y-52560256D01*
X155935226Y-52371898D01*
X155975000Y-52171939D01*
X155975000Y-52140512D01*
X171279783Y-52140512D01*
X171321213Y-52420130D01*
X171416397Y-52686292D01*
X171483329Y-52811514D01*
X171727298Y-52883097D01*
X172540395Y-52070000D01*
X172899605Y-52070000D01*
X173712702Y-52883097D01*
X173956671Y-52811514D01*
X174077571Y-52556004D01*
X174146300Y-52281816D01*
X174160217Y-51999488D01*
X174118787Y-51719870D01*
X174023603Y-51453708D01*
X173956671Y-51328486D01*
X173712702Y-51256903D01*
X172899605Y-52070000D01*
X172540395Y-52070000D01*
X171727298Y-51256903D01*
X171483329Y-51328486D01*
X171362429Y-51583996D01*
X171293700Y-51858184D01*
X171279783Y-52140512D01*
X155975000Y-52140512D01*
X155975000Y-51968061D01*
X155935226Y-51768102D01*
X155857205Y-51579744D01*
X155743937Y-51410226D01*
X155599774Y-51266063D01*
X155430256Y-51152795D01*
X155241898Y-51074774D01*
X155041939Y-51035000D01*
X154838061Y-51035000D01*
X154638102Y-51074774D01*
X154449744Y-51152795D01*
X154280226Y-51266063D01*
X154136063Y-51410226D01*
X154022795Y-51579744D01*
X153944774Y-51768102D01*
X153905000Y-51968061D01*
X140876740Y-51968061D01*
X146996114Y-45848688D01*
X147178665Y-45885000D01*
X147461335Y-45885000D01*
X147738574Y-45829853D01*
X147999727Y-45721680D01*
X148234759Y-45564637D01*
X148434637Y-45364759D01*
X148590000Y-45132241D01*
X148745363Y-45364759D01*
X148945241Y-45564637D01*
X149180273Y-45721680D01*
X149441426Y-45829853D01*
X149718665Y-45885000D01*
X150001335Y-45885000D01*
X150278574Y-45829853D01*
X150539727Y-45721680D01*
X150774759Y-45564637D01*
X150974637Y-45364759D01*
X151130000Y-45132241D01*
X151285363Y-45364759D01*
X151485241Y-45564637D01*
X151720273Y-45721680D01*
X151981426Y-45829853D01*
X152258665Y-45885000D01*
X152541335Y-45885000D01*
X152818574Y-45829853D01*
X153079727Y-45721680D01*
X153314759Y-45564637D01*
X153514637Y-45364759D01*
X153670000Y-45132241D01*
X153825363Y-45364759D01*
X154025241Y-45564637D01*
X154257759Y-45720000D01*
X154025241Y-45875363D01*
X153825363Y-46075241D01*
X153668320Y-46310273D01*
X153560147Y-46571426D01*
X153505000Y-46848665D01*
X153505000Y-47131335D01*
X153560147Y-47408574D01*
X153668320Y-47669727D01*
X153825363Y-47904759D01*
X154025241Y-48104637D01*
X154260273Y-48261680D01*
X154521426Y-48369853D01*
X154798665Y-48425000D01*
X155081335Y-48425000D01*
X155358574Y-48369853D01*
X155619727Y-48261680D01*
X155854759Y-48104637D01*
X156054637Y-47904759D01*
X156211680Y-47669727D01*
X156319853Y-47408574D01*
X156375000Y-47131335D01*
X156375000Y-46848665D01*
X156319853Y-46571426D01*
X156211680Y-46310273D01*
X156054637Y-46075241D01*
X155854759Y-45875363D01*
X155622241Y-45720000D01*
X155854759Y-45564637D01*
X156054637Y-45364759D01*
X156210000Y-45132241D01*
X156365363Y-45364759D01*
X156565241Y-45564637D01*
X156800273Y-45721680D01*
X157061426Y-45829853D01*
X157338665Y-45885000D01*
X157621335Y-45885000D01*
X157898574Y-45829853D01*
X158159727Y-45721680D01*
X158394759Y-45564637D01*
X158594637Y-45364759D01*
X158750000Y-45132241D01*
X158905363Y-45364759D01*
X159105241Y-45564637D01*
X159340273Y-45721680D01*
X159601426Y-45829853D01*
X159878665Y-45885000D01*
X160161335Y-45885000D01*
X160438574Y-45829853D01*
X160699727Y-45721680D01*
X160934759Y-45564637D01*
X161134637Y-45364759D01*
X161290000Y-45132241D01*
X161445363Y-45364759D01*
X161645241Y-45564637D01*
X161880273Y-45721680D01*
X162141426Y-45829853D01*
X162418665Y-45885000D01*
X162701335Y-45885000D01*
X162978574Y-45829853D01*
X163239727Y-45721680D01*
X163474759Y-45564637D01*
X163674637Y-45364759D01*
X163830000Y-45132241D01*
X163985363Y-45364759D01*
X164185241Y-45564637D01*
X164420273Y-45721680D01*
X164681426Y-45829853D01*
X164958665Y-45885000D01*
X165241335Y-45885000D01*
X165518574Y-45829853D01*
X165779727Y-45721680D01*
X166014759Y-45564637D01*
X166214637Y-45364759D01*
X166370000Y-45132241D01*
X166525363Y-45364759D01*
X166725241Y-45564637D01*
X166960273Y-45721680D01*
X167221426Y-45829853D01*
X167498665Y-45885000D01*
X167781335Y-45885000D01*
X168058574Y-45829853D01*
X168319727Y-45721680D01*
X168554759Y-45564637D01*
X168754637Y-45364759D01*
X168910000Y-45132241D01*
X169065363Y-45364759D01*
X169265241Y-45564637D01*
X169500273Y-45721680D01*
X169761426Y-45829853D01*
X170038665Y-45885000D01*
X170321335Y-45885000D01*
X170598574Y-45829853D01*
X170859727Y-45721680D01*
X171094759Y-45564637D01*
X171294637Y-45364759D01*
X171450000Y-45132241D01*
X171605363Y-45364759D01*
G36*
X143345000Y-44164250D02*
G01*
X143503750Y-44323000D01*
X144653000Y-44323000D01*
X144653000Y-44303000D01*
X144907000Y-44303000D01*
X144907000Y-44323000D01*
X144927000Y-44323000D01*
X144927000Y-44577000D01*
X144907000Y-44577000D01*
X144907000Y-45726250D01*
X144937974Y-45757224D01*
X128672000Y-62023199D01*
X128672000Y-58076801D01*
X141498801Y-45250000D01*
X143341928Y-45250000D01*
X143354188Y-45374482D01*
X143390498Y-45494180D01*
X143449463Y-45604494D01*
X143528815Y-45701185D01*
X143625506Y-45780537D01*
X143735820Y-45839502D01*
X143855518Y-45875812D01*
X143980000Y-45888072D01*
X144494250Y-45885000D01*
X144653000Y-45726250D01*
X144653000Y-44577000D01*
X143503750Y-44577000D01*
X143345000Y-44735750D01*
X143341928Y-45250000D01*
X141498801Y-45250000D01*
X142663803Y-44084999D01*
X143344527Y-44084999D01*
X143345000Y-44164250D01*
G37*
X143345000Y-44164250D02*
X143503750Y-44323000D01*
X144653000Y-44323000D01*
X144653000Y-44303000D01*
X144907000Y-44303000D01*
X144907000Y-44323000D01*
X144927000Y-44323000D01*
X144927000Y-44577000D01*
X144907000Y-44577000D01*
X144907000Y-45726250D01*
X144937974Y-45757224D01*
X128672000Y-62023199D01*
X128672000Y-58076801D01*
X141498801Y-45250000D01*
X143341928Y-45250000D01*
X143354188Y-45374482D01*
X143390498Y-45494180D01*
X143449463Y-45604494D01*
X143528815Y-45701185D01*
X143625506Y-45780537D01*
X143735820Y-45839502D01*
X143855518Y-45875812D01*
X143980000Y-45888072D01*
X144494250Y-45885000D01*
X144653000Y-45726250D01*
X144653000Y-44577000D01*
X143503750Y-44577000D01*
X143345000Y-44735750D01*
X143341928Y-45250000D01*
X141498801Y-45250000D01*
X142663803Y-44084999D01*
X143344527Y-44084999D01*
X143345000Y-44164250D01*
M02*
