M48
; DRILL file {KiCad (5.1.6-0-10_14)} date Saturday, May 23, 2020 at 10:31:36 PM
; FORMAT={-:-/ absolute / inch / decimal}
; #@! TF.CreationDate,2020-05-23T22:31:36+08:00
; #@! TF.GenerationSoftware,Kicad,Pcbnew,(5.1.6-0-10_14)
; #@! TF.FileFunction,Plated,1,2,PTH
FMAT,2
INCH
T1C0.0157
T2C0.0300
T3C0.0433
%
G90
G05
T1
X6.1Y-2.05
T2
X4.9375Y-2.8814
X4.9867Y-2.97
X5.0359Y-2.8814
X5.0851Y-2.97
X5.1343Y-2.8814
X5.1835Y-2.97
X5.2328Y-2.8814
X5.282Y-2.97
X6.6894Y-2.88
X6.7386Y-2.9686
X6.7878Y-2.88
X6.837Y-2.9686
X6.8862Y-2.88
X6.9354Y-2.9686
X6.9846Y-2.88
X7.0339Y-2.9686
X7.0831Y-2.88
X7.1323Y-2.9686
X7.1815Y-2.88
X7.2307Y-2.9686
X7.2799Y-2.88
X7.3291Y-2.9686
T3
X5.7Y-1.75
X5.7Y-2.35
X5.8Y-1.75
X5.8Y-2.35
X5.9Y-1.75
X5.9Y-2.35
X6.0Y-1.75
X6.0Y-2.35
X6.1Y-1.75
X6.1Y-1.85
X6.1Y-2.25
X6.1Y-2.35
X6.2Y-1.75
X6.2Y-2.35
X6.3Y-1.75
X6.3Y-2.35
X6.4Y-1.75
X6.4Y-2.35
X6.5Y-1.75
X6.5Y-2.35
X6.6Y-1.75
X6.6Y-2.35
X6.7Y-1.75
X6.7Y-2.35
X6.8Y-1.75
X6.8Y-1.85
X6.8Y-1.95
X6.8Y-2.05
X6.8Y-2.15
X6.8Y-2.25
X6.8Y-2.35
T0
M30
