G04 #@! TF.GenerationSoftware,KiCad,Pcbnew,(5.1.6-0-10_14)*
G04 #@! TF.CreationDate,2020-05-23T22:31:31+08:00*
G04 #@! TF.ProjectId,HHKB Lite 2,48484b42-204c-4697-9465-20322e6b6963,2020.06*
G04 #@! TF.SameCoordinates,Original*
G04 #@! TF.FileFunction,Soldermask,Top*
G04 #@! TF.FilePolarity,Negative*
%FSLAX46Y46*%
G04 Gerber Fmt 4.6, Leading zero omitted, Abs format (unit mm)*
G04 Created by KiCad (PCBNEW (5.1.6-0-10_14)) date 2020-05-23 22:31:31*
%MOMM*%
%LPD*%
G01*
G04 APERTURE LIST*
%ADD10C,0.100000*%
G04 APERTURE END LIST*
D10*
G36*
X134975000Y-76251000D02*
G01*
X133349000Y-76251000D01*
X133349000Y-74625000D01*
X134975000Y-74625000D01*
X134975000Y-76251000D01*
G37*
G36*
X131899142Y-74656242D02*
G01*
X132047101Y-74717529D01*
X132180255Y-74806499D01*
X132293501Y-74919745D01*
X132382471Y-75052899D01*
X132443758Y-75200858D01*
X132475000Y-75357925D01*
X132475000Y-75518075D01*
X132443758Y-75675142D01*
X132382471Y-75823101D01*
X132293501Y-75956255D01*
X132180255Y-76069501D01*
X132047101Y-76158471D01*
X131899142Y-76219758D01*
X131742075Y-76251000D01*
X131581925Y-76251000D01*
X131424858Y-76219758D01*
X131276899Y-76158471D01*
X131143745Y-76069501D01*
X131030499Y-75956255D01*
X130941529Y-75823101D01*
X130880242Y-75675142D01*
X130849000Y-75518075D01*
X130849000Y-75357925D01*
X130880242Y-75200858D01*
X130941529Y-75052899D01*
X131030499Y-74919745D01*
X131143745Y-74806499D01*
X131276899Y-74717529D01*
X131424858Y-74656242D01*
X131581925Y-74625000D01*
X131742075Y-74625000D01*
X131899142Y-74656242D01*
G37*
G36*
X129399142Y-74656242D02*
G01*
X129547101Y-74717529D01*
X129680255Y-74806499D01*
X129793501Y-74919745D01*
X129882471Y-75052899D01*
X129943758Y-75200858D01*
X129975000Y-75357925D01*
X129975000Y-75518075D01*
X129943758Y-75675142D01*
X129882471Y-75823101D01*
X129793501Y-75956255D01*
X129680255Y-76069501D01*
X129547101Y-76158471D01*
X129399142Y-76219758D01*
X129242075Y-76251000D01*
X129081925Y-76251000D01*
X128924858Y-76219758D01*
X128776899Y-76158471D01*
X128643745Y-76069501D01*
X128530499Y-75956255D01*
X128441529Y-75823101D01*
X128380242Y-75675142D01*
X128349000Y-75518075D01*
X128349000Y-75357925D01*
X128380242Y-75200858D01*
X128441529Y-75052899D01*
X128530499Y-74919745D01*
X128643745Y-74806499D01*
X128776899Y-74717529D01*
X128924858Y-74656242D01*
X129081925Y-74625000D01*
X129242075Y-74625000D01*
X129399142Y-74656242D01*
G37*
G36*
X126899142Y-74656242D02*
G01*
X127047101Y-74717529D01*
X127180255Y-74806499D01*
X127293501Y-74919745D01*
X127382471Y-75052899D01*
X127443758Y-75200858D01*
X127475000Y-75357925D01*
X127475000Y-75518075D01*
X127443758Y-75675142D01*
X127382471Y-75823101D01*
X127293501Y-75956255D01*
X127180255Y-76069501D01*
X127047101Y-76158471D01*
X126899142Y-76219758D01*
X126742075Y-76251000D01*
X126581925Y-76251000D01*
X126424858Y-76219758D01*
X126276899Y-76158471D01*
X126143745Y-76069501D01*
X126030499Y-75956255D01*
X125941529Y-75823101D01*
X125880242Y-75675142D01*
X125849000Y-75518075D01*
X125849000Y-75357925D01*
X125880242Y-75200858D01*
X125941529Y-75052899D01*
X126030499Y-74919745D01*
X126143745Y-74806499D01*
X126276899Y-74717529D01*
X126424858Y-74656242D01*
X126581925Y-74625000D01*
X126742075Y-74625000D01*
X126899142Y-74656242D01*
G37*
G36*
X186397142Y-74620242D02*
G01*
X186545101Y-74681529D01*
X186678255Y-74770499D01*
X186791501Y-74883745D01*
X186880471Y-75016899D01*
X186941758Y-75164858D01*
X186973000Y-75321925D01*
X186973000Y-75482075D01*
X186941758Y-75639142D01*
X186880471Y-75787101D01*
X186791501Y-75920255D01*
X186678255Y-76033501D01*
X186545101Y-76122471D01*
X186397142Y-76183758D01*
X186240075Y-76215000D01*
X186079925Y-76215000D01*
X185922858Y-76183758D01*
X185774899Y-76122471D01*
X185641745Y-76033501D01*
X185528499Y-75920255D01*
X185439529Y-75787101D01*
X185378242Y-75639142D01*
X185347000Y-75482075D01*
X185347000Y-75321925D01*
X185378242Y-75164858D01*
X185439529Y-75016899D01*
X185528499Y-74883745D01*
X185641745Y-74770499D01*
X185774899Y-74681529D01*
X185922858Y-74620242D01*
X186079925Y-74589000D01*
X186240075Y-74589000D01*
X186397142Y-74620242D01*
G37*
G36*
X183897142Y-74620242D02*
G01*
X184045101Y-74681529D01*
X184178255Y-74770499D01*
X184291501Y-74883745D01*
X184380471Y-75016899D01*
X184441758Y-75164858D01*
X184473000Y-75321925D01*
X184473000Y-75482075D01*
X184441758Y-75639142D01*
X184380471Y-75787101D01*
X184291501Y-75920255D01*
X184178255Y-76033501D01*
X184045101Y-76122471D01*
X183897142Y-76183758D01*
X183740075Y-76215000D01*
X183579925Y-76215000D01*
X183422858Y-76183758D01*
X183274899Y-76122471D01*
X183141745Y-76033501D01*
X183028499Y-75920255D01*
X182939529Y-75787101D01*
X182878242Y-75639142D01*
X182847000Y-75482075D01*
X182847000Y-75321925D01*
X182878242Y-75164858D01*
X182939529Y-75016899D01*
X183028499Y-74883745D01*
X183141745Y-74770499D01*
X183274899Y-74681529D01*
X183422858Y-74620242D01*
X183579925Y-74589000D01*
X183740075Y-74589000D01*
X183897142Y-74620242D01*
G37*
G36*
X181397142Y-74620242D02*
G01*
X181545101Y-74681529D01*
X181678255Y-74770499D01*
X181791501Y-74883745D01*
X181880471Y-75016899D01*
X181941758Y-75164858D01*
X181973000Y-75321925D01*
X181973000Y-75482075D01*
X181941758Y-75639142D01*
X181880471Y-75787101D01*
X181791501Y-75920255D01*
X181678255Y-76033501D01*
X181545101Y-76122471D01*
X181397142Y-76183758D01*
X181240075Y-76215000D01*
X181079925Y-76215000D01*
X180922858Y-76183758D01*
X180774899Y-76122471D01*
X180641745Y-76033501D01*
X180528499Y-75920255D01*
X180439529Y-75787101D01*
X180378242Y-75639142D01*
X180347000Y-75482075D01*
X180347000Y-75321925D01*
X180378242Y-75164858D01*
X180439529Y-75016899D01*
X180528499Y-74883745D01*
X180641745Y-74770499D01*
X180774899Y-74681529D01*
X180922858Y-74620242D01*
X181079925Y-74589000D01*
X181240075Y-74589000D01*
X181397142Y-74620242D01*
G37*
G36*
X178897142Y-74620242D02*
G01*
X179045101Y-74681529D01*
X179178255Y-74770499D01*
X179291501Y-74883745D01*
X179380471Y-75016899D01*
X179441758Y-75164858D01*
X179473000Y-75321925D01*
X179473000Y-75482075D01*
X179441758Y-75639142D01*
X179380471Y-75787101D01*
X179291501Y-75920255D01*
X179178255Y-76033501D01*
X179045101Y-76122471D01*
X178897142Y-76183758D01*
X178740075Y-76215000D01*
X178579925Y-76215000D01*
X178422858Y-76183758D01*
X178274899Y-76122471D01*
X178141745Y-76033501D01*
X178028499Y-75920255D01*
X177939529Y-75787101D01*
X177878242Y-75639142D01*
X177847000Y-75482075D01*
X177847000Y-75321925D01*
X177878242Y-75164858D01*
X177939529Y-75016899D01*
X178028499Y-74883745D01*
X178141745Y-74770499D01*
X178274899Y-74681529D01*
X178422858Y-74620242D01*
X178579925Y-74589000D01*
X178740075Y-74589000D01*
X178897142Y-74620242D01*
G37*
G36*
X176397142Y-74620242D02*
G01*
X176545101Y-74681529D01*
X176678255Y-74770499D01*
X176791501Y-74883745D01*
X176880471Y-75016899D01*
X176941758Y-75164858D01*
X176973000Y-75321925D01*
X176973000Y-75482075D01*
X176941758Y-75639142D01*
X176880471Y-75787101D01*
X176791501Y-75920255D01*
X176678255Y-76033501D01*
X176545101Y-76122471D01*
X176397142Y-76183758D01*
X176240075Y-76215000D01*
X176079925Y-76215000D01*
X175922858Y-76183758D01*
X175774899Y-76122471D01*
X175641745Y-76033501D01*
X175528499Y-75920255D01*
X175439529Y-75787101D01*
X175378242Y-75639142D01*
X175347000Y-75482075D01*
X175347000Y-75321925D01*
X175378242Y-75164858D01*
X175439529Y-75016899D01*
X175528499Y-74883745D01*
X175641745Y-74770499D01*
X175774899Y-74681529D01*
X175922858Y-74620242D01*
X176079925Y-74589000D01*
X176240075Y-74589000D01*
X176397142Y-74620242D01*
G37*
G36*
X173897142Y-74620242D02*
G01*
X174045101Y-74681529D01*
X174178255Y-74770499D01*
X174291501Y-74883745D01*
X174380471Y-75016899D01*
X174441758Y-75164858D01*
X174473000Y-75321925D01*
X174473000Y-75482075D01*
X174441758Y-75639142D01*
X174380471Y-75787101D01*
X174291501Y-75920255D01*
X174178255Y-76033501D01*
X174045101Y-76122471D01*
X173897142Y-76183758D01*
X173740075Y-76215000D01*
X173579925Y-76215000D01*
X173422858Y-76183758D01*
X173274899Y-76122471D01*
X173141745Y-76033501D01*
X173028499Y-75920255D01*
X172939529Y-75787101D01*
X172878242Y-75639142D01*
X172847000Y-75482075D01*
X172847000Y-75321925D01*
X172878242Y-75164858D01*
X172939529Y-75016899D01*
X173028499Y-74883745D01*
X173141745Y-74770499D01*
X173274899Y-74681529D01*
X173422858Y-74620242D01*
X173579925Y-74589000D01*
X173740075Y-74589000D01*
X173897142Y-74620242D01*
G37*
G36*
X171397142Y-74620242D02*
G01*
X171545101Y-74681529D01*
X171678255Y-74770499D01*
X171791501Y-74883745D01*
X171880471Y-75016899D01*
X171941758Y-75164858D01*
X171973000Y-75321925D01*
X171973000Y-75482075D01*
X171941758Y-75639142D01*
X171880471Y-75787101D01*
X171791501Y-75920255D01*
X171678255Y-76033501D01*
X171545101Y-76122471D01*
X171397142Y-76183758D01*
X171240075Y-76215000D01*
X171079925Y-76215000D01*
X170922858Y-76183758D01*
X170774899Y-76122471D01*
X170641745Y-76033501D01*
X170528499Y-75920255D01*
X170439529Y-75787101D01*
X170378242Y-75639142D01*
X170347000Y-75482075D01*
X170347000Y-75321925D01*
X170378242Y-75164858D01*
X170439529Y-75016899D01*
X170528499Y-74883745D01*
X170641745Y-74770499D01*
X170774899Y-74681529D01*
X170922858Y-74620242D01*
X171079925Y-74589000D01*
X171240075Y-74589000D01*
X171397142Y-74620242D01*
G37*
G36*
X125649142Y-72406242D02*
G01*
X125797101Y-72467529D01*
X125930255Y-72556499D01*
X126043501Y-72669745D01*
X126132471Y-72802899D01*
X126193758Y-72950858D01*
X126225000Y-73107925D01*
X126225000Y-73268075D01*
X126193758Y-73425142D01*
X126132471Y-73573101D01*
X126043501Y-73706255D01*
X125930255Y-73819501D01*
X125797101Y-73908471D01*
X125649142Y-73969758D01*
X125492075Y-74001000D01*
X125331925Y-74001000D01*
X125174858Y-73969758D01*
X125026899Y-73908471D01*
X124893745Y-73819501D01*
X124780499Y-73706255D01*
X124691529Y-73573101D01*
X124630242Y-73425142D01*
X124599000Y-73268075D01*
X124599000Y-73107925D01*
X124630242Y-72950858D01*
X124691529Y-72802899D01*
X124780499Y-72669745D01*
X124893745Y-72556499D01*
X125026899Y-72467529D01*
X125174858Y-72406242D01*
X125331925Y-72375000D01*
X125492075Y-72375000D01*
X125649142Y-72406242D01*
G37*
G36*
X133149142Y-72406242D02*
G01*
X133297101Y-72467529D01*
X133430255Y-72556499D01*
X133543501Y-72669745D01*
X133632471Y-72802899D01*
X133693758Y-72950858D01*
X133725000Y-73107925D01*
X133725000Y-73268075D01*
X133693758Y-73425142D01*
X133632471Y-73573101D01*
X133543501Y-73706255D01*
X133430255Y-73819501D01*
X133297101Y-73908471D01*
X133149142Y-73969758D01*
X132992075Y-74001000D01*
X132831925Y-74001000D01*
X132674858Y-73969758D01*
X132526899Y-73908471D01*
X132393745Y-73819501D01*
X132280499Y-73706255D01*
X132191529Y-73573101D01*
X132130242Y-73425142D01*
X132099000Y-73268075D01*
X132099000Y-73107925D01*
X132130242Y-72950858D01*
X132191529Y-72802899D01*
X132280499Y-72669745D01*
X132393745Y-72556499D01*
X132526899Y-72467529D01*
X132674858Y-72406242D01*
X132831925Y-72375000D01*
X132992075Y-72375000D01*
X133149142Y-72406242D01*
G37*
G36*
X130649142Y-72406242D02*
G01*
X130797101Y-72467529D01*
X130930255Y-72556499D01*
X131043501Y-72669745D01*
X131132471Y-72802899D01*
X131193758Y-72950858D01*
X131225000Y-73107925D01*
X131225000Y-73268075D01*
X131193758Y-73425142D01*
X131132471Y-73573101D01*
X131043501Y-73706255D01*
X130930255Y-73819501D01*
X130797101Y-73908471D01*
X130649142Y-73969758D01*
X130492075Y-74001000D01*
X130331925Y-74001000D01*
X130174858Y-73969758D01*
X130026899Y-73908471D01*
X129893745Y-73819501D01*
X129780499Y-73706255D01*
X129691529Y-73573101D01*
X129630242Y-73425142D01*
X129599000Y-73268075D01*
X129599000Y-73107925D01*
X129630242Y-72950858D01*
X129691529Y-72802899D01*
X129780499Y-72669745D01*
X129893745Y-72556499D01*
X130026899Y-72467529D01*
X130174858Y-72406242D01*
X130331925Y-72375000D01*
X130492075Y-72375000D01*
X130649142Y-72406242D01*
G37*
G36*
X128149142Y-72406242D02*
G01*
X128297101Y-72467529D01*
X128430255Y-72556499D01*
X128543501Y-72669745D01*
X128632471Y-72802899D01*
X128693758Y-72950858D01*
X128725000Y-73107925D01*
X128725000Y-73268075D01*
X128693758Y-73425142D01*
X128632471Y-73573101D01*
X128543501Y-73706255D01*
X128430255Y-73819501D01*
X128297101Y-73908471D01*
X128149142Y-73969758D01*
X127992075Y-74001000D01*
X127831925Y-74001000D01*
X127674858Y-73969758D01*
X127526899Y-73908471D01*
X127393745Y-73819501D01*
X127280499Y-73706255D01*
X127191529Y-73573101D01*
X127130242Y-73425142D01*
X127099000Y-73268075D01*
X127099000Y-73107925D01*
X127130242Y-72950858D01*
X127191529Y-72802899D01*
X127280499Y-72669745D01*
X127393745Y-72556499D01*
X127526899Y-72467529D01*
X127674858Y-72406242D01*
X127831925Y-72375000D01*
X127992075Y-72375000D01*
X128149142Y-72406242D01*
G37*
G36*
X182647142Y-72370242D02*
G01*
X182795101Y-72431529D01*
X182928255Y-72520499D01*
X183041501Y-72633745D01*
X183130471Y-72766899D01*
X183191758Y-72914858D01*
X183223000Y-73071925D01*
X183223000Y-73232075D01*
X183191758Y-73389142D01*
X183130471Y-73537101D01*
X183041501Y-73670255D01*
X182928255Y-73783501D01*
X182795101Y-73872471D01*
X182647142Y-73933758D01*
X182490075Y-73965000D01*
X182329925Y-73965000D01*
X182172858Y-73933758D01*
X182024899Y-73872471D01*
X181891745Y-73783501D01*
X181778499Y-73670255D01*
X181689529Y-73537101D01*
X181628242Y-73389142D01*
X181597000Y-73232075D01*
X181597000Y-73071925D01*
X181628242Y-72914858D01*
X181689529Y-72766899D01*
X181778499Y-72633745D01*
X181891745Y-72520499D01*
X182024899Y-72431529D01*
X182172858Y-72370242D01*
X182329925Y-72339000D01*
X182490075Y-72339000D01*
X182647142Y-72370242D01*
G37*
G36*
X170723000Y-73965000D02*
G01*
X169097000Y-73965000D01*
X169097000Y-72339000D01*
X170723000Y-72339000D01*
X170723000Y-73965000D01*
G37*
G36*
X172647142Y-72370242D02*
G01*
X172795101Y-72431529D01*
X172928255Y-72520499D01*
X173041501Y-72633745D01*
X173130471Y-72766899D01*
X173191758Y-72914858D01*
X173223000Y-73071925D01*
X173223000Y-73232075D01*
X173191758Y-73389142D01*
X173130471Y-73537101D01*
X173041501Y-73670255D01*
X172928255Y-73783501D01*
X172795101Y-73872471D01*
X172647142Y-73933758D01*
X172490075Y-73965000D01*
X172329925Y-73965000D01*
X172172858Y-73933758D01*
X172024899Y-73872471D01*
X171891745Y-73783501D01*
X171778499Y-73670255D01*
X171689529Y-73537101D01*
X171628242Y-73389142D01*
X171597000Y-73232075D01*
X171597000Y-73071925D01*
X171628242Y-72914858D01*
X171689529Y-72766899D01*
X171778499Y-72633745D01*
X171891745Y-72520499D01*
X172024899Y-72431529D01*
X172172858Y-72370242D01*
X172329925Y-72339000D01*
X172490075Y-72339000D01*
X172647142Y-72370242D01*
G37*
G36*
X175147142Y-72370242D02*
G01*
X175295101Y-72431529D01*
X175428255Y-72520499D01*
X175541501Y-72633745D01*
X175630471Y-72766899D01*
X175691758Y-72914858D01*
X175723000Y-73071925D01*
X175723000Y-73232075D01*
X175691758Y-73389142D01*
X175630471Y-73537101D01*
X175541501Y-73670255D01*
X175428255Y-73783501D01*
X175295101Y-73872471D01*
X175147142Y-73933758D01*
X174990075Y-73965000D01*
X174829925Y-73965000D01*
X174672858Y-73933758D01*
X174524899Y-73872471D01*
X174391745Y-73783501D01*
X174278499Y-73670255D01*
X174189529Y-73537101D01*
X174128242Y-73389142D01*
X174097000Y-73232075D01*
X174097000Y-73071925D01*
X174128242Y-72914858D01*
X174189529Y-72766899D01*
X174278499Y-72633745D01*
X174391745Y-72520499D01*
X174524899Y-72431529D01*
X174672858Y-72370242D01*
X174829925Y-72339000D01*
X174990075Y-72339000D01*
X175147142Y-72370242D01*
G37*
G36*
X177647142Y-72370242D02*
G01*
X177795101Y-72431529D01*
X177928255Y-72520499D01*
X178041501Y-72633745D01*
X178130471Y-72766899D01*
X178191758Y-72914858D01*
X178223000Y-73071925D01*
X178223000Y-73232075D01*
X178191758Y-73389142D01*
X178130471Y-73537101D01*
X178041501Y-73670255D01*
X177928255Y-73783501D01*
X177795101Y-73872471D01*
X177647142Y-73933758D01*
X177490075Y-73965000D01*
X177329925Y-73965000D01*
X177172858Y-73933758D01*
X177024899Y-73872471D01*
X176891745Y-73783501D01*
X176778499Y-73670255D01*
X176689529Y-73537101D01*
X176628242Y-73389142D01*
X176597000Y-73232075D01*
X176597000Y-73071925D01*
X176628242Y-72914858D01*
X176689529Y-72766899D01*
X176778499Y-72633745D01*
X176891745Y-72520499D01*
X177024899Y-72431529D01*
X177172858Y-72370242D01*
X177329925Y-72339000D01*
X177490075Y-72339000D01*
X177647142Y-72370242D01*
G37*
G36*
X180147142Y-72370242D02*
G01*
X180295101Y-72431529D01*
X180428255Y-72520499D01*
X180541501Y-72633745D01*
X180630471Y-72766899D01*
X180691758Y-72914858D01*
X180723000Y-73071925D01*
X180723000Y-73232075D01*
X180691758Y-73389142D01*
X180630471Y-73537101D01*
X180541501Y-73670255D01*
X180428255Y-73783501D01*
X180295101Y-73872471D01*
X180147142Y-73933758D01*
X179990075Y-73965000D01*
X179829925Y-73965000D01*
X179672858Y-73933758D01*
X179524899Y-73872471D01*
X179391745Y-73783501D01*
X179278499Y-73670255D01*
X179189529Y-73537101D01*
X179128242Y-73389142D01*
X179097000Y-73232075D01*
X179097000Y-73071925D01*
X179128242Y-72914858D01*
X179189529Y-72766899D01*
X179278499Y-72633745D01*
X179391745Y-72520499D01*
X179524899Y-72431529D01*
X179672858Y-72370242D01*
X179829925Y-72339000D01*
X179990075Y-72339000D01*
X180147142Y-72370242D01*
G37*
G36*
X185147142Y-72370242D02*
G01*
X185295101Y-72431529D01*
X185428255Y-72520499D01*
X185541501Y-72633745D01*
X185630471Y-72766899D01*
X185691758Y-72914858D01*
X185723000Y-73071925D01*
X185723000Y-73232075D01*
X185691758Y-73389142D01*
X185630471Y-73537101D01*
X185541501Y-73670255D01*
X185428255Y-73783501D01*
X185295101Y-73872471D01*
X185147142Y-73933758D01*
X184990075Y-73965000D01*
X184829925Y-73965000D01*
X184672858Y-73933758D01*
X184524899Y-73872471D01*
X184391745Y-73783501D01*
X184278499Y-73670255D01*
X184189529Y-73537101D01*
X184128242Y-73389142D01*
X184097000Y-73232075D01*
X184097000Y-73071925D01*
X184128242Y-72914858D01*
X184189529Y-72766899D01*
X184278499Y-72633745D01*
X184391745Y-72520499D01*
X184524899Y-72431529D01*
X184672858Y-72370242D01*
X184829925Y-72339000D01*
X184990075Y-72339000D01*
X185147142Y-72370242D01*
G37*
G36*
X170428228Y-58871703D02*
G01*
X170583100Y-58935853D01*
X170722481Y-59028985D01*
X170841015Y-59147519D01*
X170934147Y-59286900D01*
X170998297Y-59441772D01*
X171031000Y-59606184D01*
X171031000Y-59773816D01*
X170998297Y-59938228D01*
X170934147Y-60093100D01*
X170841015Y-60232481D01*
X170722481Y-60351015D01*
X170583100Y-60444147D01*
X170428228Y-60508297D01*
X170263816Y-60541000D01*
X170096184Y-60541000D01*
X169931772Y-60508297D01*
X169776900Y-60444147D01*
X169637519Y-60351015D01*
X169518985Y-60232481D01*
X169425853Y-60093100D01*
X169361703Y-59938228D01*
X169329000Y-59773816D01*
X169329000Y-59606184D01*
X169361703Y-59441772D01*
X169425853Y-59286900D01*
X169518985Y-59147519D01*
X169637519Y-59028985D01*
X169776900Y-58935853D01*
X169931772Y-58871703D01*
X170096184Y-58839000D01*
X170263816Y-58839000D01*
X170428228Y-58871703D01*
G37*
G36*
X145028228Y-58871703D02*
G01*
X145183100Y-58935853D01*
X145322481Y-59028985D01*
X145441015Y-59147519D01*
X145534147Y-59286900D01*
X145598297Y-59441772D01*
X145631000Y-59606184D01*
X145631000Y-59773816D01*
X145598297Y-59938228D01*
X145534147Y-60093100D01*
X145441015Y-60232481D01*
X145322481Y-60351015D01*
X145183100Y-60444147D01*
X145028228Y-60508297D01*
X144863816Y-60541000D01*
X144696184Y-60541000D01*
X144531772Y-60508297D01*
X144376900Y-60444147D01*
X144237519Y-60351015D01*
X144118985Y-60232481D01*
X144025853Y-60093100D01*
X143961703Y-59938228D01*
X143929000Y-59773816D01*
X143929000Y-59606184D01*
X143961703Y-59441772D01*
X144025853Y-59286900D01*
X144118985Y-59147519D01*
X144237519Y-59028985D01*
X144376900Y-58935853D01*
X144531772Y-58871703D01*
X144696184Y-58839000D01*
X144863816Y-58839000D01*
X145028228Y-58871703D01*
G37*
G36*
X147568228Y-58871703D02*
G01*
X147723100Y-58935853D01*
X147862481Y-59028985D01*
X147981015Y-59147519D01*
X148074147Y-59286900D01*
X148138297Y-59441772D01*
X148171000Y-59606184D01*
X148171000Y-59773816D01*
X148138297Y-59938228D01*
X148074147Y-60093100D01*
X147981015Y-60232481D01*
X147862481Y-60351015D01*
X147723100Y-60444147D01*
X147568228Y-60508297D01*
X147403816Y-60541000D01*
X147236184Y-60541000D01*
X147071772Y-60508297D01*
X146916900Y-60444147D01*
X146777519Y-60351015D01*
X146658985Y-60232481D01*
X146565853Y-60093100D01*
X146501703Y-59938228D01*
X146469000Y-59773816D01*
X146469000Y-59606184D01*
X146501703Y-59441772D01*
X146565853Y-59286900D01*
X146658985Y-59147519D01*
X146777519Y-59028985D01*
X146916900Y-58935853D01*
X147071772Y-58871703D01*
X147236184Y-58839000D01*
X147403816Y-58839000D01*
X147568228Y-58871703D01*
G37*
G36*
X150108228Y-58871703D02*
G01*
X150263100Y-58935853D01*
X150402481Y-59028985D01*
X150521015Y-59147519D01*
X150614147Y-59286900D01*
X150678297Y-59441772D01*
X150711000Y-59606184D01*
X150711000Y-59773816D01*
X150678297Y-59938228D01*
X150614147Y-60093100D01*
X150521015Y-60232481D01*
X150402481Y-60351015D01*
X150263100Y-60444147D01*
X150108228Y-60508297D01*
X149943816Y-60541000D01*
X149776184Y-60541000D01*
X149611772Y-60508297D01*
X149456900Y-60444147D01*
X149317519Y-60351015D01*
X149198985Y-60232481D01*
X149105853Y-60093100D01*
X149041703Y-59938228D01*
X149009000Y-59773816D01*
X149009000Y-59606184D01*
X149041703Y-59441772D01*
X149105853Y-59286900D01*
X149198985Y-59147519D01*
X149317519Y-59028985D01*
X149456900Y-58935853D01*
X149611772Y-58871703D01*
X149776184Y-58839000D01*
X149943816Y-58839000D01*
X150108228Y-58871703D01*
G37*
G36*
X152648228Y-58871703D02*
G01*
X152803100Y-58935853D01*
X152942481Y-59028985D01*
X153061015Y-59147519D01*
X153154147Y-59286900D01*
X153218297Y-59441772D01*
X153251000Y-59606184D01*
X153251000Y-59773816D01*
X153218297Y-59938228D01*
X153154147Y-60093100D01*
X153061015Y-60232481D01*
X152942481Y-60351015D01*
X152803100Y-60444147D01*
X152648228Y-60508297D01*
X152483816Y-60541000D01*
X152316184Y-60541000D01*
X152151772Y-60508297D01*
X151996900Y-60444147D01*
X151857519Y-60351015D01*
X151738985Y-60232481D01*
X151645853Y-60093100D01*
X151581703Y-59938228D01*
X151549000Y-59773816D01*
X151549000Y-59606184D01*
X151581703Y-59441772D01*
X151645853Y-59286900D01*
X151738985Y-59147519D01*
X151857519Y-59028985D01*
X151996900Y-58935853D01*
X152151772Y-58871703D01*
X152316184Y-58839000D01*
X152483816Y-58839000D01*
X152648228Y-58871703D01*
G37*
G36*
X155188228Y-58871703D02*
G01*
X155343100Y-58935853D01*
X155482481Y-59028985D01*
X155601015Y-59147519D01*
X155694147Y-59286900D01*
X155758297Y-59441772D01*
X155791000Y-59606184D01*
X155791000Y-59773816D01*
X155758297Y-59938228D01*
X155694147Y-60093100D01*
X155601015Y-60232481D01*
X155482481Y-60351015D01*
X155343100Y-60444147D01*
X155188228Y-60508297D01*
X155023816Y-60541000D01*
X154856184Y-60541000D01*
X154691772Y-60508297D01*
X154536900Y-60444147D01*
X154397519Y-60351015D01*
X154278985Y-60232481D01*
X154185853Y-60093100D01*
X154121703Y-59938228D01*
X154089000Y-59773816D01*
X154089000Y-59606184D01*
X154121703Y-59441772D01*
X154185853Y-59286900D01*
X154278985Y-59147519D01*
X154397519Y-59028985D01*
X154536900Y-58935853D01*
X154691772Y-58871703D01*
X154856184Y-58839000D01*
X155023816Y-58839000D01*
X155188228Y-58871703D01*
G37*
G36*
X157728228Y-58871703D02*
G01*
X157883100Y-58935853D01*
X158022481Y-59028985D01*
X158141015Y-59147519D01*
X158234147Y-59286900D01*
X158298297Y-59441772D01*
X158331000Y-59606184D01*
X158331000Y-59773816D01*
X158298297Y-59938228D01*
X158234147Y-60093100D01*
X158141015Y-60232481D01*
X158022481Y-60351015D01*
X157883100Y-60444147D01*
X157728228Y-60508297D01*
X157563816Y-60541000D01*
X157396184Y-60541000D01*
X157231772Y-60508297D01*
X157076900Y-60444147D01*
X156937519Y-60351015D01*
X156818985Y-60232481D01*
X156725853Y-60093100D01*
X156661703Y-59938228D01*
X156629000Y-59773816D01*
X156629000Y-59606184D01*
X156661703Y-59441772D01*
X156725853Y-59286900D01*
X156818985Y-59147519D01*
X156937519Y-59028985D01*
X157076900Y-58935853D01*
X157231772Y-58871703D01*
X157396184Y-58839000D01*
X157563816Y-58839000D01*
X157728228Y-58871703D01*
G37*
G36*
X160268228Y-58871703D02*
G01*
X160423100Y-58935853D01*
X160562481Y-59028985D01*
X160681015Y-59147519D01*
X160774147Y-59286900D01*
X160838297Y-59441772D01*
X160871000Y-59606184D01*
X160871000Y-59773816D01*
X160838297Y-59938228D01*
X160774147Y-60093100D01*
X160681015Y-60232481D01*
X160562481Y-60351015D01*
X160423100Y-60444147D01*
X160268228Y-60508297D01*
X160103816Y-60541000D01*
X159936184Y-60541000D01*
X159771772Y-60508297D01*
X159616900Y-60444147D01*
X159477519Y-60351015D01*
X159358985Y-60232481D01*
X159265853Y-60093100D01*
X159201703Y-59938228D01*
X159169000Y-59773816D01*
X159169000Y-59606184D01*
X159201703Y-59441772D01*
X159265853Y-59286900D01*
X159358985Y-59147519D01*
X159477519Y-59028985D01*
X159616900Y-58935853D01*
X159771772Y-58871703D01*
X159936184Y-58839000D01*
X160103816Y-58839000D01*
X160268228Y-58871703D01*
G37*
G36*
X172968228Y-58871703D02*
G01*
X173123100Y-58935853D01*
X173262481Y-59028985D01*
X173381015Y-59147519D01*
X173474147Y-59286900D01*
X173538297Y-59441772D01*
X173571000Y-59606184D01*
X173571000Y-59773816D01*
X173538297Y-59938228D01*
X173474147Y-60093100D01*
X173381015Y-60232481D01*
X173262481Y-60351015D01*
X173123100Y-60444147D01*
X172968228Y-60508297D01*
X172803816Y-60541000D01*
X172636184Y-60541000D01*
X172471772Y-60508297D01*
X172316900Y-60444147D01*
X172177519Y-60351015D01*
X172058985Y-60232481D01*
X171965853Y-60093100D01*
X171901703Y-59938228D01*
X171869000Y-59773816D01*
X171869000Y-59606184D01*
X171901703Y-59441772D01*
X171965853Y-59286900D01*
X172058985Y-59147519D01*
X172177519Y-59028985D01*
X172316900Y-58935853D01*
X172471772Y-58871703D01*
X172636184Y-58839000D01*
X172803816Y-58839000D01*
X172968228Y-58871703D01*
G37*
G36*
X162808228Y-58871703D02*
G01*
X162963100Y-58935853D01*
X163102481Y-59028985D01*
X163221015Y-59147519D01*
X163314147Y-59286900D01*
X163378297Y-59441772D01*
X163411000Y-59606184D01*
X163411000Y-59773816D01*
X163378297Y-59938228D01*
X163314147Y-60093100D01*
X163221015Y-60232481D01*
X163102481Y-60351015D01*
X162963100Y-60444147D01*
X162808228Y-60508297D01*
X162643816Y-60541000D01*
X162476184Y-60541000D01*
X162311772Y-60508297D01*
X162156900Y-60444147D01*
X162017519Y-60351015D01*
X161898985Y-60232481D01*
X161805853Y-60093100D01*
X161741703Y-59938228D01*
X161709000Y-59773816D01*
X161709000Y-59606184D01*
X161741703Y-59441772D01*
X161805853Y-59286900D01*
X161898985Y-59147519D01*
X162017519Y-59028985D01*
X162156900Y-58935853D01*
X162311772Y-58871703D01*
X162476184Y-58839000D01*
X162643816Y-58839000D01*
X162808228Y-58871703D01*
G37*
G36*
X165348228Y-58871703D02*
G01*
X165503100Y-58935853D01*
X165642481Y-59028985D01*
X165761015Y-59147519D01*
X165854147Y-59286900D01*
X165918297Y-59441772D01*
X165951000Y-59606184D01*
X165951000Y-59773816D01*
X165918297Y-59938228D01*
X165854147Y-60093100D01*
X165761015Y-60232481D01*
X165642481Y-60351015D01*
X165503100Y-60444147D01*
X165348228Y-60508297D01*
X165183816Y-60541000D01*
X165016184Y-60541000D01*
X164851772Y-60508297D01*
X164696900Y-60444147D01*
X164557519Y-60351015D01*
X164438985Y-60232481D01*
X164345853Y-60093100D01*
X164281703Y-59938228D01*
X164249000Y-59773816D01*
X164249000Y-59606184D01*
X164281703Y-59441772D01*
X164345853Y-59286900D01*
X164438985Y-59147519D01*
X164557519Y-59028985D01*
X164696900Y-58935853D01*
X164851772Y-58871703D01*
X165016184Y-58839000D01*
X165183816Y-58839000D01*
X165348228Y-58871703D01*
G37*
G36*
X167888228Y-58871703D02*
G01*
X168043100Y-58935853D01*
X168182481Y-59028985D01*
X168301015Y-59147519D01*
X168394147Y-59286900D01*
X168458297Y-59441772D01*
X168491000Y-59606184D01*
X168491000Y-59773816D01*
X168458297Y-59938228D01*
X168394147Y-60093100D01*
X168301015Y-60232481D01*
X168182481Y-60351015D01*
X168043100Y-60444147D01*
X167888228Y-60508297D01*
X167723816Y-60541000D01*
X167556184Y-60541000D01*
X167391772Y-60508297D01*
X167236900Y-60444147D01*
X167097519Y-60351015D01*
X166978985Y-60232481D01*
X166885853Y-60093100D01*
X166821703Y-59938228D01*
X166789000Y-59773816D01*
X166789000Y-59606184D01*
X166821703Y-59441772D01*
X166885853Y-59286900D01*
X166978985Y-59147519D01*
X167097519Y-59028985D01*
X167236900Y-58935853D01*
X167391772Y-58871703D01*
X167556184Y-58839000D01*
X167723816Y-58839000D01*
X167888228Y-58871703D01*
G37*
G36*
X155188228Y-56331703D02*
G01*
X155343100Y-56395853D01*
X155482481Y-56488985D01*
X155601015Y-56607519D01*
X155694147Y-56746900D01*
X155758297Y-56901772D01*
X155791000Y-57066184D01*
X155791000Y-57233816D01*
X155758297Y-57398228D01*
X155694147Y-57553100D01*
X155601015Y-57692481D01*
X155482481Y-57811015D01*
X155343100Y-57904147D01*
X155188228Y-57968297D01*
X155023816Y-58001000D01*
X154856184Y-58001000D01*
X154691772Y-57968297D01*
X154536900Y-57904147D01*
X154397519Y-57811015D01*
X154278985Y-57692481D01*
X154185853Y-57553100D01*
X154121703Y-57398228D01*
X154089000Y-57233816D01*
X154089000Y-57066184D01*
X154121703Y-56901772D01*
X154185853Y-56746900D01*
X154278985Y-56607519D01*
X154397519Y-56488985D01*
X154536900Y-56395853D01*
X154691772Y-56331703D01*
X154856184Y-56299000D01*
X155023816Y-56299000D01*
X155188228Y-56331703D01*
G37*
G36*
X172968228Y-56331703D02*
G01*
X173123100Y-56395853D01*
X173262481Y-56488985D01*
X173381015Y-56607519D01*
X173474147Y-56746900D01*
X173538297Y-56901772D01*
X173571000Y-57066184D01*
X173571000Y-57233816D01*
X173538297Y-57398228D01*
X173474147Y-57553100D01*
X173381015Y-57692481D01*
X173262481Y-57811015D01*
X173123100Y-57904147D01*
X172968228Y-57968297D01*
X172803816Y-58001000D01*
X172636184Y-58001000D01*
X172471772Y-57968297D01*
X172316900Y-57904147D01*
X172177519Y-57811015D01*
X172058985Y-57692481D01*
X171965853Y-57553100D01*
X171901703Y-57398228D01*
X171869000Y-57233816D01*
X171869000Y-57066184D01*
X171901703Y-56901772D01*
X171965853Y-56746900D01*
X172058985Y-56607519D01*
X172177519Y-56488985D01*
X172316900Y-56395853D01*
X172471772Y-56331703D01*
X172636184Y-56299000D01*
X172803816Y-56299000D01*
X172968228Y-56331703D01*
G37*
G36*
X172968228Y-53791703D02*
G01*
X173123100Y-53855853D01*
X173262481Y-53948985D01*
X173381015Y-54067519D01*
X173474147Y-54206900D01*
X173538297Y-54361772D01*
X173571000Y-54526184D01*
X173571000Y-54693816D01*
X173538297Y-54858228D01*
X173474147Y-55013100D01*
X173381015Y-55152481D01*
X173262481Y-55271015D01*
X173123100Y-55364147D01*
X172968228Y-55428297D01*
X172803816Y-55461000D01*
X172636184Y-55461000D01*
X172471772Y-55428297D01*
X172316900Y-55364147D01*
X172177519Y-55271015D01*
X172058985Y-55152481D01*
X171965853Y-55013100D01*
X171901703Y-54858228D01*
X171869000Y-54693816D01*
X171869000Y-54526184D01*
X171901703Y-54361772D01*
X171965853Y-54206900D01*
X172058985Y-54067519D01*
X172177519Y-53948985D01*
X172316900Y-53855853D01*
X172471772Y-53791703D01*
X172636184Y-53759000D01*
X172803816Y-53759000D01*
X172968228Y-53791703D01*
G37*
G36*
X172968228Y-51251703D02*
G01*
X173123100Y-51315853D01*
X173262481Y-51408985D01*
X173381015Y-51527519D01*
X173474147Y-51666900D01*
X173538297Y-51821772D01*
X173571000Y-51986184D01*
X173571000Y-52153816D01*
X173538297Y-52318228D01*
X173474147Y-52473100D01*
X173381015Y-52612481D01*
X173262481Y-52731015D01*
X173123100Y-52824147D01*
X172968228Y-52888297D01*
X172803816Y-52921000D01*
X172636184Y-52921000D01*
X172471772Y-52888297D01*
X172316900Y-52824147D01*
X172177519Y-52731015D01*
X172058985Y-52612481D01*
X171965853Y-52473100D01*
X171901703Y-52318228D01*
X171869000Y-52153816D01*
X171869000Y-51986184D01*
X171901703Y-51821772D01*
X171965853Y-51666900D01*
X172058985Y-51527519D01*
X172177519Y-51408985D01*
X172316900Y-51315853D01*
X172471772Y-51251703D01*
X172636184Y-51219000D01*
X172803816Y-51219000D01*
X172968228Y-51251703D01*
G37*
G36*
X172968228Y-48711703D02*
G01*
X173123100Y-48775853D01*
X173262481Y-48868985D01*
X173381015Y-48987519D01*
X173474147Y-49126900D01*
X173538297Y-49281772D01*
X173571000Y-49446184D01*
X173571000Y-49613816D01*
X173538297Y-49778228D01*
X173474147Y-49933100D01*
X173381015Y-50072481D01*
X173262481Y-50191015D01*
X173123100Y-50284147D01*
X172968228Y-50348297D01*
X172803816Y-50381000D01*
X172636184Y-50381000D01*
X172471772Y-50348297D01*
X172316900Y-50284147D01*
X172177519Y-50191015D01*
X172058985Y-50072481D01*
X171965853Y-49933100D01*
X171901703Y-49778228D01*
X171869000Y-49613816D01*
X171869000Y-49446184D01*
X171901703Y-49281772D01*
X171965853Y-49126900D01*
X172058985Y-48987519D01*
X172177519Y-48868985D01*
X172316900Y-48775853D01*
X172471772Y-48711703D01*
X172636184Y-48679000D01*
X172803816Y-48679000D01*
X172968228Y-48711703D01*
G37*
G36*
X155188228Y-46171703D02*
G01*
X155343100Y-46235853D01*
X155482481Y-46328985D01*
X155601015Y-46447519D01*
X155694147Y-46586900D01*
X155758297Y-46741772D01*
X155791000Y-46906184D01*
X155791000Y-47073816D01*
X155758297Y-47238228D01*
X155694147Y-47393100D01*
X155601015Y-47532481D01*
X155482481Y-47651015D01*
X155343100Y-47744147D01*
X155188228Y-47808297D01*
X155023816Y-47841000D01*
X154856184Y-47841000D01*
X154691772Y-47808297D01*
X154536900Y-47744147D01*
X154397519Y-47651015D01*
X154278985Y-47532481D01*
X154185853Y-47393100D01*
X154121703Y-47238228D01*
X154089000Y-47073816D01*
X154089000Y-46906184D01*
X154121703Y-46741772D01*
X154185853Y-46586900D01*
X154278985Y-46447519D01*
X154397519Y-46328985D01*
X154536900Y-46235853D01*
X154691772Y-46171703D01*
X154856184Y-46139000D01*
X155023816Y-46139000D01*
X155188228Y-46171703D01*
G37*
G36*
X172968228Y-46171703D02*
G01*
X173123100Y-46235853D01*
X173262481Y-46328985D01*
X173381015Y-46447519D01*
X173474147Y-46586900D01*
X173538297Y-46741772D01*
X173571000Y-46906184D01*
X173571000Y-47073816D01*
X173538297Y-47238228D01*
X173474147Y-47393100D01*
X173381015Y-47532481D01*
X173262481Y-47651015D01*
X173123100Y-47744147D01*
X172968228Y-47808297D01*
X172803816Y-47841000D01*
X172636184Y-47841000D01*
X172471772Y-47808297D01*
X172316900Y-47744147D01*
X172177519Y-47651015D01*
X172058985Y-47532481D01*
X171965853Y-47393100D01*
X171901703Y-47238228D01*
X171869000Y-47073816D01*
X171869000Y-46906184D01*
X171901703Y-46741772D01*
X171965853Y-46586900D01*
X172058985Y-46447519D01*
X172177519Y-46328985D01*
X172316900Y-46235853D01*
X172471772Y-46171703D01*
X172636184Y-46139000D01*
X172803816Y-46139000D01*
X172968228Y-46171703D01*
G37*
G36*
X160268228Y-43631703D02*
G01*
X160423100Y-43695853D01*
X160562481Y-43788985D01*
X160681015Y-43907519D01*
X160774147Y-44046900D01*
X160838297Y-44201772D01*
X160871000Y-44366184D01*
X160871000Y-44533816D01*
X160838297Y-44698228D01*
X160774147Y-44853100D01*
X160681015Y-44992481D01*
X160562481Y-45111015D01*
X160423100Y-45204147D01*
X160268228Y-45268297D01*
X160103816Y-45301000D01*
X159936184Y-45301000D01*
X159771772Y-45268297D01*
X159616900Y-45204147D01*
X159477519Y-45111015D01*
X159358985Y-44992481D01*
X159265853Y-44853100D01*
X159201703Y-44698228D01*
X159169000Y-44533816D01*
X159169000Y-44366184D01*
X159201703Y-44201772D01*
X159265853Y-44046900D01*
X159358985Y-43907519D01*
X159477519Y-43788985D01*
X159616900Y-43695853D01*
X159771772Y-43631703D01*
X159936184Y-43599000D01*
X160103816Y-43599000D01*
X160268228Y-43631703D01*
G37*
G36*
X162808228Y-43631703D02*
G01*
X162963100Y-43695853D01*
X163102481Y-43788985D01*
X163221015Y-43907519D01*
X163314147Y-44046900D01*
X163378297Y-44201772D01*
X163411000Y-44366184D01*
X163411000Y-44533816D01*
X163378297Y-44698228D01*
X163314147Y-44853100D01*
X163221015Y-44992481D01*
X163102481Y-45111015D01*
X162963100Y-45204147D01*
X162808228Y-45268297D01*
X162643816Y-45301000D01*
X162476184Y-45301000D01*
X162311772Y-45268297D01*
X162156900Y-45204147D01*
X162017519Y-45111015D01*
X161898985Y-44992481D01*
X161805853Y-44853100D01*
X161741703Y-44698228D01*
X161709000Y-44533816D01*
X161709000Y-44366184D01*
X161741703Y-44201772D01*
X161805853Y-44046900D01*
X161898985Y-43907519D01*
X162017519Y-43788985D01*
X162156900Y-43695853D01*
X162311772Y-43631703D01*
X162476184Y-43599000D01*
X162643816Y-43599000D01*
X162808228Y-43631703D01*
G37*
G36*
X165348228Y-43631703D02*
G01*
X165503100Y-43695853D01*
X165642481Y-43788985D01*
X165761015Y-43907519D01*
X165854147Y-44046900D01*
X165918297Y-44201772D01*
X165951000Y-44366184D01*
X165951000Y-44533816D01*
X165918297Y-44698228D01*
X165854147Y-44853100D01*
X165761015Y-44992481D01*
X165642481Y-45111015D01*
X165503100Y-45204147D01*
X165348228Y-45268297D01*
X165183816Y-45301000D01*
X165016184Y-45301000D01*
X164851772Y-45268297D01*
X164696900Y-45204147D01*
X164557519Y-45111015D01*
X164438985Y-44992481D01*
X164345853Y-44853100D01*
X164281703Y-44698228D01*
X164249000Y-44533816D01*
X164249000Y-44366184D01*
X164281703Y-44201772D01*
X164345853Y-44046900D01*
X164438985Y-43907519D01*
X164557519Y-43788985D01*
X164696900Y-43695853D01*
X164851772Y-43631703D01*
X165016184Y-43599000D01*
X165183816Y-43599000D01*
X165348228Y-43631703D01*
G37*
G36*
X167888228Y-43631703D02*
G01*
X168043100Y-43695853D01*
X168182481Y-43788985D01*
X168301015Y-43907519D01*
X168394147Y-44046900D01*
X168458297Y-44201772D01*
X168491000Y-44366184D01*
X168491000Y-44533816D01*
X168458297Y-44698228D01*
X168394147Y-44853100D01*
X168301015Y-44992481D01*
X168182481Y-45111015D01*
X168043100Y-45204147D01*
X167888228Y-45268297D01*
X167723816Y-45301000D01*
X167556184Y-45301000D01*
X167391772Y-45268297D01*
X167236900Y-45204147D01*
X167097519Y-45111015D01*
X166978985Y-44992481D01*
X166885853Y-44853100D01*
X166821703Y-44698228D01*
X166789000Y-44533816D01*
X166789000Y-44366184D01*
X166821703Y-44201772D01*
X166885853Y-44046900D01*
X166978985Y-43907519D01*
X167097519Y-43788985D01*
X167236900Y-43695853D01*
X167391772Y-43631703D01*
X167556184Y-43599000D01*
X167723816Y-43599000D01*
X167888228Y-43631703D01*
G37*
G36*
X170428228Y-43631703D02*
G01*
X170583100Y-43695853D01*
X170722481Y-43788985D01*
X170841015Y-43907519D01*
X170934147Y-44046900D01*
X170998297Y-44201772D01*
X171031000Y-44366184D01*
X171031000Y-44533816D01*
X170998297Y-44698228D01*
X170934147Y-44853100D01*
X170841015Y-44992481D01*
X170722481Y-45111015D01*
X170583100Y-45204147D01*
X170428228Y-45268297D01*
X170263816Y-45301000D01*
X170096184Y-45301000D01*
X169931772Y-45268297D01*
X169776900Y-45204147D01*
X169637519Y-45111015D01*
X169518985Y-44992481D01*
X169425853Y-44853100D01*
X169361703Y-44698228D01*
X169329000Y-44533816D01*
X169329000Y-44366184D01*
X169361703Y-44201772D01*
X169425853Y-44046900D01*
X169518985Y-43907519D01*
X169637519Y-43788985D01*
X169776900Y-43695853D01*
X169931772Y-43631703D01*
X170096184Y-43599000D01*
X170263816Y-43599000D01*
X170428228Y-43631703D01*
G37*
G36*
X172968228Y-43631703D02*
G01*
X173123100Y-43695853D01*
X173262481Y-43788985D01*
X173381015Y-43907519D01*
X173474147Y-44046900D01*
X173538297Y-44201772D01*
X173571000Y-44366184D01*
X173571000Y-44533816D01*
X173538297Y-44698228D01*
X173474147Y-44853100D01*
X173381015Y-44992481D01*
X173262481Y-45111015D01*
X173123100Y-45204147D01*
X172968228Y-45268297D01*
X172803816Y-45301000D01*
X172636184Y-45301000D01*
X172471772Y-45268297D01*
X172316900Y-45204147D01*
X172177519Y-45111015D01*
X172058985Y-44992481D01*
X171965853Y-44853100D01*
X171901703Y-44698228D01*
X171869000Y-44533816D01*
X171869000Y-44366184D01*
X171901703Y-44201772D01*
X171965853Y-44046900D01*
X172058985Y-43907519D01*
X172177519Y-43788985D01*
X172316900Y-43695853D01*
X172471772Y-43631703D01*
X172636184Y-43599000D01*
X172803816Y-43599000D01*
X172968228Y-43631703D01*
G37*
G36*
X157728228Y-43631703D02*
G01*
X157883100Y-43695853D01*
X158022481Y-43788985D01*
X158141015Y-43907519D01*
X158234147Y-44046900D01*
X158298297Y-44201772D01*
X158331000Y-44366184D01*
X158331000Y-44533816D01*
X158298297Y-44698228D01*
X158234147Y-44853100D01*
X158141015Y-44992481D01*
X158022481Y-45111015D01*
X157883100Y-45204147D01*
X157728228Y-45268297D01*
X157563816Y-45301000D01*
X157396184Y-45301000D01*
X157231772Y-45268297D01*
X157076900Y-45204147D01*
X156937519Y-45111015D01*
X156818985Y-44992481D01*
X156725853Y-44853100D01*
X156661703Y-44698228D01*
X156629000Y-44533816D01*
X156629000Y-44366184D01*
X156661703Y-44201772D01*
X156725853Y-44046900D01*
X156818985Y-43907519D01*
X156937519Y-43788985D01*
X157076900Y-43695853D01*
X157231772Y-43631703D01*
X157396184Y-43599000D01*
X157563816Y-43599000D01*
X157728228Y-43631703D01*
G37*
G36*
X155188228Y-43631703D02*
G01*
X155343100Y-43695853D01*
X155482481Y-43788985D01*
X155601015Y-43907519D01*
X155694147Y-44046900D01*
X155758297Y-44201772D01*
X155791000Y-44366184D01*
X155791000Y-44533816D01*
X155758297Y-44698228D01*
X155694147Y-44853100D01*
X155601015Y-44992481D01*
X155482481Y-45111015D01*
X155343100Y-45204147D01*
X155188228Y-45268297D01*
X155023816Y-45301000D01*
X154856184Y-45301000D01*
X154691772Y-45268297D01*
X154536900Y-45204147D01*
X154397519Y-45111015D01*
X154278985Y-44992481D01*
X154185853Y-44853100D01*
X154121703Y-44698228D01*
X154089000Y-44533816D01*
X154089000Y-44366184D01*
X154121703Y-44201772D01*
X154185853Y-44046900D01*
X154278985Y-43907519D01*
X154397519Y-43788985D01*
X154536900Y-43695853D01*
X154691772Y-43631703D01*
X154856184Y-43599000D01*
X155023816Y-43599000D01*
X155188228Y-43631703D01*
G37*
G36*
X152648228Y-43631703D02*
G01*
X152803100Y-43695853D01*
X152942481Y-43788985D01*
X153061015Y-43907519D01*
X153154147Y-44046900D01*
X153218297Y-44201772D01*
X153251000Y-44366184D01*
X153251000Y-44533816D01*
X153218297Y-44698228D01*
X153154147Y-44853100D01*
X153061015Y-44992481D01*
X152942481Y-45111015D01*
X152803100Y-45204147D01*
X152648228Y-45268297D01*
X152483816Y-45301000D01*
X152316184Y-45301000D01*
X152151772Y-45268297D01*
X151996900Y-45204147D01*
X151857519Y-45111015D01*
X151738985Y-44992481D01*
X151645853Y-44853100D01*
X151581703Y-44698228D01*
X151549000Y-44533816D01*
X151549000Y-44366184D01*
X151581703Y-44201772D01*
X151645853Y-44046900D01*
X151738985Y-43907519D01*
X151857519Y-43788985D01*
X151996900Y-43695853D01*
X152151772Y-43631703D01*
X152316184Y-43599000D01*
X152483816Y-43599000D01*
X152648228Y-43631703D01*
G37*
G36*
X150108228Y-43631703D02*
G01*
X150263100Y-43695853D01*
X150402481Y-43788985D01*
X150521015Y-43907519D01*
X150614147Y-44046900D01*
X150678297Y-44201772D01*
X150711000Y-44366184D01*
X150711000Y-44533816D01*
X150678297Y-44698228D01*
X150614147Y-44853100D01*
X150521015Y-44992481D01*
X150402481Y-45111015D01*
X150263100Y-45204147D01*
X150108228Y-45268297D01*
X149943816Y-45301000D01*
X149776184Y-45301000D01*
X149611772Y-45268297D01*
X149456900Y-45204147D01*
X149317519Y-45111015D01*
X149198985Y-44992481D01*
X149105853Y-44853100D01*
X149041703Y-44698228D01*
X149009000Y-44533816D01*
X149009000Y-44366184D01*
X149041703Y-44201772D01*
X149105853Y-44046900D01*
X149198985Y-43907519D01*
X149317519Y-43788985D01*
X149456900Y-43695853D01*
X149611772Y-43631703D01*
X149776184Y-43599000D01*
X149943816Y-43599000D01*
X150108228Y-43631703D01*
G37*
G36*
X147568228Y-43631703D02*
G01*
X147723100Y-43695853D01*
X147862481Y-43788985D01*
X147981015Y-43907519D01*
X148074147Y-44046900D01*
X148138297Y-44201772D01*
X148171000Y-44366184D01*
X148171000Y-44533816D01*
X148138297Y-44698228D01*
X148074147Y-44853100D01*
X147981015Y-44992481D01*
X147862481Y-45111015D01*
X147723100Y-45204147D01*
X147568228Y-45268297D01*
X147403816Y-45301000D01*
X147236184Y-45301000D01*
X147071772Y-45268297D01*
X146916900Y-45204147D01*
X146777519Y-45111015D01*
X146658985Y-44992481D01*
X146565853Y-44853100D01*
X146501703Y-44698228D01*
X146469000Y-44533816D01*
X146469000Y-44366184D01*
X146501703Y-44201772D01*
X146565853Y-44046900D01*
X146658985Y-43907519D01*
X146777519Y-43788985D01*
X146916900Y-43695853D01*
X147071772Y-43631703D01*
X147236184Y-43599000D01*
X147403816Y-43599000D01*
X147568228Y-43631703D01*
G37*
G36*
X145631000Y-45301000D02*
G01*
X143929000Y-45301000D01*
X143929000Y-43599000D01*
X145631000Y-43599000D01*
X145631000Y-45301000D01*
G37*
M02*
