G04 #@! TF.GenerationSoftware,KiCad,Pcbnew,(5.1.5-0-10_14)*
G04 #@! TF.CreationDate,2020-05-11T22:22:16+08:00*
G04 #@! TF.ProjectId,HHKB Lite 2,48484b42-204c-4697-9465-20322e6b6963,rev?*
G04 #@! TF.SameCoordinates,Original*
G04 #@! TF.FileFunction,Legend,Top*
G04 #@! TF.FilePolarity,Positive*
%FSLAX46Y46*%
G04 Gerber Fmt 4.6, Leading zero omitted, Abs format (unit mm)*
G04 Created by KiCad (PCBNEW (5.1.5-0-10_14)) date 2020-05-11 22:22:16*
%MOMM*%
%LPD*%
G04 APERTURE LIST*
%ADD10C,0.150000*%
%ADD11C,0.120000*%
%ADD12C,0.100000*%
G04 APERTURE END LIST*
D10*
X159838666Y-33663380D02*
X159838666Y-32663380D01*
X159838666Y-33139571D02*
X160410095Y-33139571D01*
X160410095Y-33663380D02*
X160410095Y-32663380D01*
X160886285Y-33663380D02*
X160886285Y-32663380D01*
X160886285Y-33139571D02*
X161457714Y-33139571D01*
X161457714Y-33663380D02*
X161457714Y-32663380D01*
X161933904Y-33663380D02*
X161933904Y-32663380D01*
X162505333Y-33663380D02*
X162076761Y-33091952D01*
X162505333Y-32663380D02*
X161933904Y-33234809D01*
X163267238Y-33139571D02*
X163410095Y-33187190D01*
X163457714Y-33234809D01*
X163505333Y-33330047D01*
X163505333Y-33472904D01*
X163457714Y-33568142D01*
X163410095Y-33615761D01*
X163314857Y-33663380D01*
X162933904Y-33663380D01*
X162933904Y-32663380D01*
X163267238Y-32663380D01*
X163362476Y-32711000D01*
X163410095Y-32758619D01*
X163457714Y-32853857D01*
X163457714Y-32949095D01*
X163410095Y-33044333D01*
X163362476Y-33091952D01*
X163267238Y-33139571D01*
X162933904Y-33139571D01*
X165172000Y-33663380D02*
X164695809Y-33663380D01*
X164695809Y-32663380D01*
X165505333Y-33663380D02*
X165505333Y-32996714D01*
X165505333Y-32663380D02*
X165457714Y-32711000D01*
X165505333Y-32758619D01*
X165552952Y-32711000D01*
X165505333Y-32663380D01*
X165505333Y-32758619D01*
X165838666Y-32996714D02*
X166219619Y-32996714D01*
X165981523Y-32663380D02*
X165981523Y-33520523D01*
X166029142Y-33615761D01*
X166124380Y-33663380D01*
X166219619Y-33663380D01*
X166933904Y-33615761D02*
X166838666Y-33663380D01*
X166648190Y-33663380D01*
X166552952Y-33615761D01*
X166505333Y-33520523D01*
X166505333Y-33139571D01*
X166552952Y-33044333D01*
X166648190Y-32996714D01*
X166838666Y-32996714D01*
X166933904Y-33044333D01*
X166981523Y-33139571D01*
X166981523Y-33234809D01*
X166505333Y-33330047D01*
X168124380Y-32758619D02*
X168172000Y-32711000D01*
X168267238Y-32663380D01*
X168505333Y-32663380D01*
X168600571Y-32711000D01*
X168648190Y-32758619D01*
X168695809Y-32853857D01*
X168695809Y-32949095D01*
X168648190Y-33091952D01*
X168076761Y-33663380D01*
X168695809Y-33663380D01*
X169886285Y-33282428D02*
X170648190Y-33282428D01*
X171743428Y-32663380D02*
X172314857Y-32663380D01*
X172029142Y-33663380D02*
X172029142Y-32663380D01*
X173029142Y-33615761D02*
X172933904Y-33663380D01*
X172743428Y-33663380D01*
X172648190Y-33615761D01*
X172600571Y-33520523D01*
X172600571Y-33139571D01*
X172648190Y-33044333D01*
X172743428Y-32996714D01*
X172933904Y-32996714D01*
X173029142Y-33044333D01*
X173076761Y-33139571D01*
X173076761Y-33234809D01*
X172600571Y-33330047D01*
X173886285Y-33615761D02*
X173791047Y-33663380D01*
X173600571Y-33663380D01*
X173505333Y-33615761D01*
X173457714Y-33520523D01*
X173457714Y-33139571D01*
X173505333Y-33044333D01*
X173600571Y-32996714D01*
X173791047Y-32996714D01*
X173886285Y-33044333D01*
X173933904Y-33139571D01*
X173933904Y-33234809D01*
X173457714Y-33330047D01*
X174362476Y-32996714D02*
X174362476Y-33663380D01*
X174362476Y-33091952D02*
X174410095Y-33044333D01*
X174505333Y-32996714D01*
X174648190Y-32996714D01*
X174743428Y-33044333D01*
X174791047Y-33139571D01*
X174791047Y-33663380D01*
X175219619Y-33615761D02*
X175314857Y-33663380D01*
X175505333Y-33663380D01*
X175600571Y-33615761D01*
X175648190Y-33520523D01*
X175648190Y-33472904D01*
X175600571Y-33377666D01*
X175505333Y-33330047D01*
X175362476Y-33330047D01*
X175267238Y-33282428D01*
X175219619Y-33187190D01*
X175219619Y-33139571D01*
X175267238Y-33044333D01*
X175362476Y-32996714D01*
X175505333Y-32996714D01*
X175600571Y-33044333D01*
X175981523Y-32996714D02*
X176219619Y-33663380D01*
X176457714Y-32996714D02*
X176219619Y-33663380D01*
X176124380Y-33901476D01*
X176076761Y-33949095D01*
X175981523Y-33996714D01*
X177552952Y-32758619D02*
X177600571Y-32711000D01*
X177695809Y-32663380D01*
X177933904Y-32663380D01*
X178029142Y-32711000D01*
X178076761Y-32758619D01*
X178124380Y-32853857D01*
X178124380Y-32949095D01*
X178076761Y-33091952D01*
X177505333Y-33663380D01*
X178124380Y-33663380D01*
X178552952Y-33568142D02*
X178600571Y-33615761D01*
X178552952Y-33663380D01*
X178505333Y-33615761D01*
X178552952Y-33568142D01*
X178552952Y-33663380D01*
X179219619Y-32663380D02*
X179314857Y-32663380D01*
X179410095Y-32711000D01*
X179457714Y-32758619D01*
X179505333Y-32853857D01*
X179552952Y-33044333D01*
X179552952Y-33282428D01*
X179505333Y-33472904D01*
X179457714Y-33568142D01*
X179410095Y-33615761D01*
X179314857Y-33663380D01*
X179219619Y-33663380D01*
X179124380Y-33615761D01*
X179076761Y-33568142D01*
X179029142Y-33472904D01*
X178981523Y-33282428D01*
X178981523Y-33044333D01*
X179029142Y-32853857D01*
X179076761Y-32758619D01*
X179124380Y-32711000D01*
X179219619Y-32663380D01*
X165814857Y-35313380D02*
X165481523Y-34837190D01*
X165243428Y-35313380D02*
X165243428Y-34313380D01*
X165624380Y-34313380D01*
X165719619Y-34361000D01*
X165767238Y-34408619D01*
X165814857Y-34503857D01*
X165814857Y-34646714D01*
X165767238Y-34741952D01*
X165719619Y-34789571D01*
X165624380Y-34837190D01*
X165243428Y-34837190D01*
X166624380Y-35265761D02*
X166529142Y-35313380D01*
X166338666Y-35313380D01*
X166243428Y-35265761D01*
X166195809Y-35170523D01*
X166195809Y-34789571D01*
X166243428Y-34694333D01*
X166338666Y-34646714D01*
X166529142Y-34646714D01*
X166624380Y-34694333D01*
X166672000Y-34789571D01*
X166672000Y-34884809D01*
X166195809Y-34980047D01*
X167243428Y-35313380D02*
X167148190Y-35265761D01*
X167100571Y-35170523D01*
X167100571Y-34313380D01*
X168338666Y-34408619D02*
X168386285Y-34361000D01*
X168481523Y-34313380D01*
X168719619Y-34313380D01*
X168814857Y-34361000D01*
X168862476Y-34408619D01*
X168910095Y-34503857D01*
X168910095Y-34599095D01*
X168862476Y-34741952D01*
X168291047Y-35313380D01*
X168910095Y-35313380D01*
X169529142Y-34313380D02*
X169624380Y-34313380D01*
X169719619Y-34361000D01*
X169767238Y-34408619D01*
X169814857Y-34503857D01*
X169862476Y-34694333D01*
X169862476Y-34932428D01*
X169814857Y-35122904D01*
X169767238Y-35218142D01*
X169719619Y-35265761D01*
X169624380Y-35313380D01*
X169529142Y-35313380D01*
X169433904Y-35265761D01*
X169386285Y-35218142D01*
X169338666Y-35122904D01*
X169291047Y-34932428D01*
X169291047Y-34694333D01*
X169338666Y-34503857D01*
X169386285Y-34408619D01*
X169433904Y-34361000D01*
X169529142Y-34313380D01*
X170243428Y-34408619D02*
X170291047Y-34361000D01*
X170386285Y-34313380D01*
X170624380Y-34313380D01*
X170719619Y-34361000D01*
X170767238Y-34408619D01*
X170814857Y-34503857D01*
X170814857Y-34599095D01*
X170767238Y-34741952D01*
X170195809Y-35313380D01*
X170814857Y-35313380D01*
X171433904Y-34313380D02*
X171529142Y-34313380D01*
X171624380Y-34361000D01*
X171672000Y-34408619D01*
X171719619Y-34503857D01*
X171767238Y-34694333D01*
X171767238Y-34932428D01*
X171719619Y-35122904D01*
X171672000Y-35218142D01*
X171624380Y-35265761D01*
X171529142Y-35313380D01*
X171433904Y-35313380D01*
X171338666Y-35265761D01*
X171291047Y-35218142D01*
X171243428Y-35122904D01*
X171195809Y-34932428D01*
X171195809Y-34694333D01*
X171243428Y-34503857D01*
X171291047Y-34408619D01*
X171338666Y-34361000D01*
X171433904Y-34313380D01*
X172195809Y-35218142D02*
X172243428Y-35265761D01*
X172195809Y-35313380D01*
X172148190Y-35265761D01*
X172195809Y-35218142D01*
X172195809Y-35313380D01*
X172862476Y-34313380D02*
X172957714Y-34313380D01*
X173052952Y-34361000D01*
X173100571Y-34408619D01*
X173148190Y-34503857D01*
X173195809Y-34694333D01*
X173195809Y-34932428D01*
X173148190Y-35122904D01*
X173100571Y-35218142D01*
X173052952Y-35265761D01*
X172957714Y-35313380D01*
X172862476Y-35313380D01*
X172767238Y-35265761D01*
X172719619Y-35218142D01*
X172672000Y-35122904D01*
X172624380Y-34932428D01*
X172624380Y-34694333D01*
X172672000Y-34503857D01*
X172719619Y-34408619D01*
X172767238Y-34361000D01*
X172862476Y-34313380D01*
X174100571Y-34313380D02*
X173624380Y-34313380D01*
X173576761Y-34789571D01*
X173624380Y-34741952D01*
X173719619Y-34694333D01*
X173957714Y-34694333D01*
X174052952Y-34741952D01*
X174100571Y-34789571D01*
X174148190Y-34884809D01*
X174148190Y-35122904D01*
X174100571Y-35218142D01*
X174052952Y-35265761D01*
X173957714Y-35313380D01*
X173719619Y-35313380D01*
X173624380Y-35265761D01*
X173576761Y-35218142D01*
D11*
X122212000Y-72338000D02*
X137412000Y-72338000D01*
X122212000Y-77338000D02*
X137412000Y-77338000D01*
X137412000Y-77338000D02*
X137412000Y-72338000D01*
X122212000Y-72338000D02*
X122212000Y-77338000D01*
X189310000Y-76252000D02*
X166710000Y-76252000D01*
X189310000Y-71152000D02*
X189310000Y-76252000D01*
X166710000Y-71152000D02*
X189310000Y-71152000D01*
X166710000Y-71152000D02*
X166710000Y-76252000D01*
D12*
G36*
X159385000Y-51308000D02*
G01*
X163195000Y-51308000D01*
X163068000Y-51562000D01*
X159385000Y-51562000D01*
X159385000Y-51308000D01*
G37*
X159385000Y-51308000D02*
X163195000Y-51308000D01*
X163068000Y-51562000D01*
X159385000Y-51562000D01*
X159385000Y-51308000D01*
G36*
X160147000Y-51181000D02*
G01*
X160147000Y-50165000D01*
X159766000Y-50165000D01*
X159385000Y-51181000D01*
X159639000Y-51181000D01*
X159893000Y-50419000D01*
X159893000Y-51181000D01*
X160147000Y-51181000D01*
G37*
X160147000Y-51181000D02*
X160147000Y-50165000D01*
X159766000Y-50165000D01*
X159385000Y-51181000D01*
X159639000Y-51181000D01*
X159893000Y-50419000D01*
X159893000Y-51181000D01*
X160147000Y-51181000D01*
G36*
X162814000Y-50038000D02*
G01*
X160528000Y-50038000D01*
X160528000Y-51181000D01*
X160274000Y-51181000D01*
X160274000Y-50038000D01*
X159766000Y-50038000D01*
X159893000Y-49784000D01*
X162814000Y-49784000D01*
X162814000Y-50038000D01*
G37*
X162814000Y-50038000D02*
X160528000Y-50038000D01*
X160528000Y-51181000D01*
X160274000Y-51181000D01*
X160274000Y-50038000D01*
X159766000Y-50038000D01*
X159893000Y-49784000D01*
X162814000Y-49784000D01*
X162814000Y-50038000D01*
G36*
X161671000Y-51181000D02*
G01*
X161671000Y-50165000D01*
X160655000Y-50165000D01*
X160655000Y-51181000D01*
X160909000Y-51181000D01*
X160909000Y-50419000D01*
X161036000Y-50419000D01*
X161036000Y-51181000D01*
X161290000Y-51181000D01*
X161290000Y-50419000D01*
X161417000Y-50419000D01*
X161417000Y-51181000D01*
X161671000Y-51181000D01*
G37*
X161671000Y-51181000D02*
X161671000Y-50165000D01*
X160655000Y-50165000D01*
X160655000Y-51181000D01*
X160909000Y-51181000D01*
X160909000Y-50419000D01*
X161036000Y-50419000D01*
X161036000Y-51181000D01*
X161290000Y-51181000D01*
X161290000Y-50419000D01*
X161417000Y-50419000D01*
X161417000Y-51181000D01*
X161671000Y-51181000D01*
G36*
X162560000Y-50165000D02*
G01*
X162560000Y-51181000D01*
X163195000Y-51181000D01*
X163322000Y-50927000D01*
X162814000Y-50927000D01*
X162814000Y-50165000D01*
X162560000Y-50165000D01*
G37*
X162560000Y-50165000D02*
X162560000Y-51181000D01*
X163195000Y-51181000D01*
X163322000Y-50927000D01*
X162814000Y-50927000D01*
X162814000Y-50165000D01*
X162560000Y-50165000D01*
G36*
X161798000Y-50165000D02*
G01*
X162433000Y-50165000D01*
X162433000Y-50419000D01*
X162052000Y-50419000D01*
X162052000Y-50546000D01*
X162433000Y-50546000D01*
X162433000Y-50800000D01*
X162052000Y-50800000D01*
X162052000Y-50927000D01*
X162433000Y-50927000D01*
X162433000Y-51181000D01*
X161798000Y-51181000D01*
X161798000Y-50165000D01*
G37*
X161798000Y-50165000D02*
X162433000Y-50165000D01*
X162433000Y-50419000D01*
X162052000Y-50419000D01*
X162052000Y-50546000D01*
X162433000Y-50546000D01*
X162433000Y-50800000D01*
X162052000Y-50800000D01*
X162052000Y-50927000D01*
X162433000Y-50927000D01*
X162433000Y-51181000D01*
X161798000Y-51181000D01*
X161798000Y-50165000D01*
D10*
X143510000Y-60960000D02*
X143510000Y-43180000D01*
X173990000Y-60960000D02*
X143510000Y-60960000D01*
X173990000Y-43180000D02*
X173990000Y-60960000D01*
X143510000Y-43180000D02*
X173990000Y-43180000D01*
X151130000Y-48260000D02*
X151130000Y-55880000D01*
X142240000Y-48260000D02*
X151130000Y-48260000D01*
X142240000Y-55880000D02*
X142240000Y-48260000D01*
X151130000Y-55880000D02*
X142240000Y-55880000D01*
X157480000Y-48260000D02*
X157480000Y-55880000D01*
X165100000Y-48260000D02*
X157480000Y-48260000D01*
X165100000Y-55880000D02*
X165100000Y-48260000D01*
X157480000Y-55880000D02*
X165100000Y-55880000D01*
X171450000Y-53340000D02*
X171450000Y-49530000D01*
X167640000Y-53340000D02*
X171450000Y-53340000D01*
X167640000Y-52070000D02*
X167640000Y-53340000D01*
X167640000Y-49530000D02*
X167640000Y-52070000D01*
X171450000Y-49530000D02*
X167640000Y-49530000D01*
X171450000Y-57150000D02*
X171450000Y-54610000D01*
X167640000Y-57150000D02*
X171450000Y-57150000D01*
X167640000Y-54610000D02*
X167640000Y-57150000D01*
X171450000Y-54610000D02*
X167640000Y-54610000D01*
X127603523Y-70826380D02*
X127603523Y-71540666D01*
X127555904Y-71683523D01*
X127460666Y-71778761D01*
X127317809Y-71826380D01*
X127222571Y-71826380D01*
X127841619Y-71921619D02*
X128603523Y-71921619D01*
X129413047Y-71826380D02*
X129079714Y-71350190D01*
X128841619Y-71826380D02*
X128841619Y-70826380D01*
X129222571Y-70826380D01*
X129317809Y-70874000D01*
X129365428Y-70921619D01*
X129413047Y-71016857D01*
X129413047Y-71159714D01*
X129365428Y-71254952D01*
X129317809Y-71302571D01*
X129222571Y-71350190D01*
X128841619Y-71350190D01*
X129984476Y-71826380D02*
X129889238Y-71778761D01*
X129841619Y-71731142D01*
X129794000Y-71635904D01*
X129794000Y-71350190D01*
X129841619Y-71254952D01*
X129889238Y-71207333D01*
X129984476Y-71159714D01*
X130127333Y-71159714D01*
X130222571Y-71207333D01*
X130270190Y-71254952D01*
X130317809Y-71350190D01*
X130317809Y-71635904D01*
X130270190Y-71731142D01*
X130222571Y-71778761D01*
X130127333Y-71826380D01*
X129984476Y-71826380D01*
X130651142Y-71159714D02*
X130841619Y-71826380D01*
X131032095Y-71350190D01*
X131222571Y-71826380D01*
X131413047Y-71159714D01*
X132317809Y-71826380D02*
X131746380Y-71826380D01*
X132032095Y-71826380D02*
X132032095Y-70826380D01*
X131936857Y-70969238D01*
X131841619Y-71064476D01*
X131746380Y-71112095D01*
X176125428Y-69556380D02*
X176125428Y-70270666D01*
X176077809Y-70413523D01*
X175982571Y-70508761D01*
X175839714Y-70556380D01*
X175744476Y-70556380D01*
X176363523Y-70651619D02*
X177125428Y-70651619D01*
X177934952Y-70461142D02*
X177887333Y-70508761D01*
X177744476Y-70556380D01*
X177649238Y-70556380D01*
X177506380Y-70508761D01*
X177411142Y-70413523D01*
X177363523Y-70318285D01*
X177315904Y-70127809D01*
X177315904Y-69984952D01*
X177363523Y-69794476D01*
X177411142Y-69699238D01*
X177506380Y-69604000D01*
X177649238Y-69556380D01*
X177744476Y-69556380D01*
X177887333Y-69604000D01*
X177934952Y-69651619D01*
X178506380Y-70556380D02*
X178411142Y-70508761D01*
X178363523Y-70461142D01*
X178315904Y-70365904D01*
X178315904Y-70080190D01*
X178363523Y-69984952D01*
X178411142Y-69937333D01*
X178506380Y-69889714D01*
X178649238Y-69889714D01*
X178744476Y-69937333D01*
X178792095Y-69984952D01*
X178839714Y-70080190D01*
X178839714Y-70365904D01*
X178792095Y-70461142D01*
X178744476Y-70508761D01*
X178649238Y-70556380D01*
X178506380Y-70556380D01*
X179411142Y-70556380D02*
X179315904Y-70508761D01*
X179268285Y-70413523D01*
X179268285Y-69556380D01*
X180315904Y-70556380D02*
X179744476Y-70556380D01*
X180030190Y-70556380D02*
X180030190Y-69556380D01*
X179934952Y-69699238D01*
X179839714Y-69794476D01*
X179744476Y-69842095D01*
X157988095Y-41362380D02*
X157988095Y-42171904D01*
X158035714Y-42267142D01*
X158083333Y-42314761D01*
X158178571Y-42362380D01*
X158369047Y-42362380D01*
X158464285Y-42314761D01*
X158511904Y-42267142D01*
X158559523Y-42171904D01*
X158559523Y-41362380D01*
X159559523Y-42362380D02*
X158988095Y-42362380D01*
X159273809Y-42362380D02*
X159273809Y-41362380D01*
X159178571Y-41505238D01*
X159083333Y-41600476D01*
X158988095Y-41648095D01*
X158723333Y-53529666D02*
X158723333Y-52829666D01*
X158956666Y-53329666D01*
X159190000Y-52829666D01*
X159190000Y-53529666D01*
X159523333Y-53163000D02*
X159756666Y-53163000D01*
X159856666Y-53529666D02*
X159523333Y-53529666D01*
X159523333Y-52829666D01*
X159856666Y-52829666D01*
X160523333Y-52863000D02*
X160456666Y-52829666D01*
X160356666Y-52829666D01*
X160256666Y-52863000D01*
X160190000Y-52929666D01*
X160156666Y-52996333D01*
X160123333Y-53129666D01*
X160123333Y-53229666D01*
X160156666Y-53363000D01*
X160190000Y-53429666D01*
X160256666Y-53496333D01*
X160356666Y-53529666D01*
X160423333Y-53529666D01*
X160523333Y-53496333D01*
X160556666Y-53463000D01*
X160556666Y-53229666D01*
X160423333Y-53229666D01*
X160823333Y-53329666D02*
X161156666Y-53329666D01*
X160756666Y-53529666D02*
X160990000Y-52829666D01*
X161223333Y-53529666D01*
X161390000Y-52829666D02*
X161823333Y-52829666D01*
X161590000Y-53096333D01*
X161690000Y-53096333D01*
X161756666Y-53129666D01*
X161790000Y-53163000D01*
X161823333Y-53229666D01*
X161823333Y-53396333D01*
X161790000Y-53463000D01*
X161756666Y-53496333D01*
X161690000Y-53529666D01*
X161490000Y-53529666D01*
X161423333Y-53496333D01*
X161390000Y-53463000D01*
X162090000Y-52896333D02*
X162123333Y-52863000D01*
X162190000Y-52829666D01*
X162356666Y-52829666D01*
X162423333Y-52863000D01*
X162456666Y-52896333D01*
X162490000Y-52963000D01*
X162490000Y-53029666D01*
X162456666Y-53129666D01*
X162056666Y-53529666D01*
X162490000Y-53529666D01*
X162790000Y-52829666D02*
X162790000Y-53396333D01*
X162823333Y-53463000D01*
X162856666Y-53496333D01*
X162923333Y-53529666D01*
X163056666Y-53529666D01*
X163123333Y-53496333D01*
X163156666Y-53463000D01*
X163190000Y-53396333D01*
X163190000Y-52829666D01*
X163823333Y-53063000D02*
X163823333Y-53529666D01*
X163656666Y-52796333D02*
X163490000Y-53296333D01*
X163923333Y-53296333D01*
M02*
